<svg xmlns="http://www.w3.org/2000/svg" viewBox="0 0 153.19 153.19"><defs><style>.cls-1{fill:#ebebeb;}.cls-2{fill:#263238;}.cls-3{fill:#455a64;}.cls-4{fill:#e8505b;}.cls-5{fill:#fafafa;}.cls-6{fill:#ffbe9d;}.cls-7{fill:#eb996e;}.cls-8{fill:#fff;}.cls-9{fill:#e0e0e0;}.cls-10{fill:none;}</style></defs><title>3659614</title><g id="Background_Simple" data-name="Background Simple"><path class="cls-1" d="M152.3,43.78l-.7-1.16a30.64,30.64,0,0,0-28-14.95,30.24,30.24,0,0,0-4.33.59A32.19,32.19,0,0,0,96.38,48.19c-2.18,5.86-2.79,12.6-6.93,17.25-5.38,6-14.52,6.23-22.56,6s-17.19,0-22.55,6c-3.35,3.8-4.42,9.21-4.15,14.3.72,13.48,10.11,25.54,22.06,31.53s26,6.53,39.1,3.9c18.32-3.7,35.74-13.84,46.21-29.5S160.68,60.68,152.3,43.78Z" transform="translate(-15.93 -3.87)"/></g><g id="Layer_6" data-name="Layer 6"><path class="cls-2" d="M99.22,23.34C82.41,20.46,80.85,35.66,81,40s1.6,8.22,3.14,12.31.56,9.65-.73,13.82C81.85,71,77,75.5,78.76,80.31c1.35,3.78,6.34,5.63,6.95,9.59.48,3.14-2,5.87-3,8.9C81,104.53,85,110.26,88.8,114.9c1.56,1.91,3.45,4,5.93,4,3.41,0,5.44-3.65,7-6.7A58.28,58.28,0,0,1,120.07,91" transform="translate(-15.93 -3.87)"/><path class="cls-3" d="M88.88,46.1a3.17,3.17,0,0,1-1,.38,7.18,7.18,0,0,1-2.67.08,7.3,7.3,0,0,1-2.5-.9,3,3,0,0,1-.87-.68s.36.22,1,.53a7.9,7.9,0,0,0,5,.8C88.47,46.2,88.87,46.06,88.88,46.1Z" transform="translate(-15.93 -3.87)"/><path class="cls-3" d="M83.84,84.77a8.6,8.6,0,0,1-.94-1.26,12,12,0,0,1-1.56-4,12.22,12.22,0,0,1,.4-6.34,15.92,15.92,0,0,1,1.7-3.37c.7-1.11,1.49-2.2,2.23-3.37a18.42,18.42,0,0,0,2.82-10.59,19.55,19.55,0,0,0-.33-2.93,18.12,18.12,0,0,0-1.3-4.06c-.19-.47-.4-.8-.51-1.05a3.83,3.83,0,0,1-.18-.37,3.56,3.56,0,0,1,.22.35c.12.24.34.57.55,1a17.47,17.47,0,0,1,1.39,4.07,19.67,19.67,0,0,1,.36,2.95,17.46,17.46,0,0,1-.15,3.42,18,18,0,0,1-2.67,7.31c-.74,1.18-1.54,2.27-2.24,3.36A15.71,15.71,0,0,0,82,73.24a12.05,12.05,0,0,0-.44,6.23,12.32,12.32,0,0,0,1.47,4C83.5,84.33,83.86,84.76,83.84,84.77Z" transform="translate(-15.93 -3.87)"/><path class="cls-4" d="M139.39,68.18s8.43,0,14.16,12.29c4.26,9.12,16.39,40.16,14.48,48.88-.43,2-1.66,6.31-4.78,6.37-5.33.1-9.05-.2-9.05-.2l-6.81-15.74-6.57-22.47S130.24,70.31,139.39,68.18Z" transform="translate(-15.93 -3.87)"/><path class="cls-4" d="M149.93,135l-2.11-14.24-8.43-52.61-10.48-.79-19.68,3.92s-11.62,1.88-17.58,6.13c0,0,1.77,28.81,1.87,31.8.22,6.56,4.3,12.44,8.41,17.65l1.08,1.38-.56,8.25Z" transform="translate(-15.93 -3.87)"/><path class="cls-4" d="M100.67,73.36A26,26,0,0,0,87.06,82c-4.3,5.56-24.35,30.29-24.35,30.29s-10.3,5.78-12.22,11.73,0,11.24,4.5,11.24,16-3.06,16-3.06l22.44-25.7L94,111l5.13-22.46Z" transform="translate(-15.93 -3.87)"/><path class="cls-2" d="M138.62,90.89a1.36,1.36,0,0,1,.1.27c.06.21.13.48.23.81.21.72.49,1.72.84,3,.73,2.48,1.75,5.91,2.91,9.69s2.22,7.18,3,9.68c.37,1.22.67,2.21.9,2.93l.23.81c.05.18.07.28.07.28a1.23,1.23,0,0,1-.12-.27l-.27-.79-1-2.91c-.81-2.46-1.9-5.87-3.06-9.66s-2.16-7.22-2.84-9.72c-.34-1.25-.6-2.26-.77-3-.08-.33-.14-.6-.19-.81A1.28,1.28,0,0,1,138.62,90.89Z" transform="translate(-15.93 -3.87)"/><path class="cls-2" d="M130.87,119.51a2.44,2.44,0,0,1-.58.14,5.09,5.09,0,0,1-.7.1c-.27,0-.57.08-.92.09a16.75,16.75,0,0,1-2.41,0,18.42,18.42,0,0,1-2.9-.53,18.06,18.06,0,0,1-2.76-1.05,14.85,14.85,0,0,1-2.09-1.22,8.39,8.39,0,0,1-.74-.55,5.89,5.89,0,0,1-.54-.44,3.2,3.2,0,0,1-.42-.42s.66.53,1.8,1.27a16.67,16.67,0,0,0,2.08,1.16,19.69,19.69,0,0,0,2.73,1,20.74,20.74,0,0,0,2.86.55,18.69,18.69,0,0,0,2.39.09C130,119.63,130.86,119.47,130.87,119.51Z" transform="translate(-15.93 -3.87)"/><path class="cls-2" d="M95.1,91.85a1.27,1.27,0,0,1,0,.26l-.18.73c-.08.32-.18.71-.28,1.17s-.22,1-.32,1.55c-.23,1.15-.43,2.53-.6,4.07s-.24,3.24-.23,5a48.19,48.19,0,0,0,.32,5c.19,1.54.42,2.92.66,4.06.11.58.25,1.09.35,1.55s.21.84.3,1.15l.19.74a1.73,1.73,0,0,1,0,.26,1.46,1.46,0,0,1-.1-.25l-.23-.72c-.1-.31-.22-.7-.34-1.15s-.26-1-.38-1.54c-.27-1.15-.52-2.53-.72-4.07a45.79,45.79,0,0,1-.34-5,44.41,44.41,0,0,1,.26-5.06,40.38,40.38,0,0,1,.65-4.08c.11-.58.25-1.09.36-1.54s.21-.85.31-1.16L95,92.1A.9.9,0,0,1,95.1,91.85Z" transform="translate(-15.93 -3.87)"/><path class="cls-2" d="M141.21,70.12a19.18,19.18,0,0,0-1.7,1.13,9.93,9.93,0,0,0-3.83,8.56c.09,1.25.34,2,.29,2a2,2,0,0,1-.18-.52,8.7,8.7,0,0,1-.28-1.48,9.6,9.6,0,0,1,3.9-8.71,8.77,8.77,0,0,1,1.29-.78A2,2,0,0,1,141.21,70.12Z" transform="translate(-15.93 -3.87)"/><path class="cls-5" d="M140.13,96.9a2.68,2.68,0,0,1-.24.46,4.26,4.26,0,0,1-1,1.1,5.71,5.71,0,0,1-2.13,1,7.47,7.47,0,0,1-3.11.07,18.64,18.64,0,0,1-3.61-1.1A30.63,30.63,0,0,0,126,97a9.64,9.64,0,0,0-2.29-.28,8.1,8.1,0,0,0-2.36.39,16.81,16.81,0,0,0-4.47,2.38,48.19,48.19,0,0,1-4.25,2.88,10.9,10.9,0,0,1-4.54,1.51,7.17,7.17,0,0,1-2.23-.22,9.5,9.5,0,0,1-2-.77,33.66,33.66,0,0,1-3.2-2,11.44,11.44,0,0,0-4.94-2.1,6.08,6.08,0,0,0-2,.1l.12,0c.09,0,.21-.06.38-.09a5.34,5.34,0,0,1,1.48-.07,11.4,11.4,0,0,1,5,2.06,36.45,36.45,0,0,0,3.2,2,9.9,9.9,0,0,0,1.93.74,6.79,6.79,0,0,0,2.17.2,10.66,10.66,0,0,0,4.44-1.5c1.43-.8,2.79-1.85,4.23-2.86a17,17,0,0,1,4.53-2.42,8.51,8.51,0,0,1,2.43-.39,10,10,0,0,1,2.34.29,31.33,31.33,0,0,1,4.08,1.45,18.59,18.59,0,0,0,3.57,1.11,7.41,7.41,0,0,0,3,0,5.78,5.78,0,0,0,2.1-1,4.39,4.39,0,0,0,1-1C140,97.06,140.11,96.9,140.13,96.9Z" transform="translate(-15.93 -3.87)"/><path class="cls-5" d="M157.62,90.22l-.09.18a4.21,4.21,0,0,1-.34.47,4.82,4.82,0,0,1-1.69,1.28,7.92,7.92,0,0,1-3.06.72,19.34,19.34,0,0,1-3.83-.35,23,23,0,0,0-3.78-.44,8.73,8.73,0,0,0-3,.5A5.36,5.36,0,0,0,140,93.65c-.37.33-.52.56-.54.54s0-.06.1-.17a3.42,3.42,0,0,1,.37-.44,5.4,5.4,0,0,1,1.78-1.16,8.48,8.48,0,0,1,3.09-.56,23.09,23.09,0,0,1,3.82.42,20,20,0,0,0,3.78.37,8.06,8.06,0,0,0,3-.65,5.21,5.21,0,0,0,1.69-1.19C157.46,90.45,157.59,90.2,157.62,90.22Z" transform="translate(-15.93 -3.87)"/><path class="cls-5" d="M161.38,101.49a.9.9,0,0,1-.08.19,5.38,5.38,0,0,1-.27.53,7.52,7.52,0,0,1-1.37,1.69,8.36,8.36,0,0,1-1.18.93,8.89,8.89,0,0,1-1.54.79,8.17,8.17,0,0,1-3.9.51,33.25,33.25,0,0,1-3.86-.78A12.46,12.46,0,0,0,146,105a6.25,6.25,0,0,0-2.09.39c-.47.19-.71.34-.73.32l.17-.12a3.73,3.73,0,0,1,.52-.28,5.67,5.67,0,0,1,2.12-.48,11.74,11.74,0,0,1,3.2.31c1.19.24,2.47.6,3.84.75a8.15,8.15,0,0,0,3.8-.47,10.76,10.76,0,0,0,1.52-.75,8.76,8.76,0,0,0,1.17-.9,8.13,8.13,0,0,0,1.4-1.61C161.23,101.74,161.36,101.48,161.38,101.49Z" transform="translate(-15.93 -3.87)"/><path class="cls-5" d="M95.08,115.51a4.18,4.18,0,0,0,1.78-1,23,23,0,0,0,1.69-1.71,11.73,11.73,0,0,1,2.51-2,10.16,10.16,0,0,1,3.67-1.29,8.29,8.29,0,0,1,2.17,0,8.64,8.64,0,0,1,2.23.62c1.46.59,2.86,1.48,4.41,2.17a9.24,9.24,0,0,0,2.45.72,5.63,5.63,0,0,0,1.3,0,7.34,7.34,0,0,0,1.29-.25,28.65,28.65,0,0,0,4.73-2.27,23.58,23.58,0,0,1,4.59-1.8,25.92,25.92,0,0,1,8.26-.93,25.51,25.51,0,0,1,5.54.92c.64.18,1.12.36,1.45.48l.37.14.12,0s0,0-.13,0l-.38-.12c-.33-.1-.82-.27-1.46-.43A25.8,25.8,0,0,0,128,109a24.49,24.49,0,0,0-4.54,1.8,27.67,27.67,0,0,1-4.77,2.29,8.81,8.81,0,0,1-1.34.26,6.85,6.85,0,0,1-1.36,0,9.71,9.71,0,0,1-2.51-.75c-1.57-.7-3-1.59-4.4-2.18a9.11,9.11,0,0,0-2.16-.62,8,8,0,0,0-2.13,0,9.71,9.71,0,0,0-3.6,1.24,11.52,11.52,0,0,0-2.5,1.94,22.35,22.35,0,0,1-1.73,1.7,4.06,4.06,0,0,1-1.32.76A2.21,2.21,0,0,1,95.08,115.51Z" transform="translate(-15.93 -3.87)"/><path class="cls-5" d="M89.55,110.58a1.57,1.57,0,0,0-.75-.39,2.89,2.89,0,0,0-1,0c-.39.05-.83.16-1.34.23a3.75,3.75,0,0,1-1.67-.15,5.06,5.06,0,0,1-1.67-1,7.46,7.46,0,0,1-1.4-1.59,12,12,0,0,1-1-2,39,39,0,0,0-1.67-4,6.5,6.5,0,0,0-2.36-2.52,4.65,4.65,0,0,0-1.23-.52,3.92,3.92,0,0,0-1-.11,6.32,6.32,0,0,0-.86.13.73.73,0,0,1,.22-.09,2.81,2.81,0,0,1,.64-.13,3.55,3.55,0,0,1,1,.07,4.69,4.69,0,0,1,1.28.5,6.6,6.6,0,0,1,2.47,2.57,35.63,35.63,0,0,1,1.7,4,11.94,11.94,0,0,0,1,2,7.29,7.29,0,0,0,1.34,1.56,4.91,4.91,0,0,0,1.59.93,3.72,3.72,0,0,0,1.59.18,7,7,0,0,1,2.39-.18,1.34,1.34,0,0,1,.58.3A1,1,0,0,1,89.55,110.58Z" transform="translate(-15.93 -3.87)"/><path class="cls-5" d="M93.89,97.11s0,0-.15.07a2.74,2.74,0,0,1-.46.13,3.72,3.72,0,0,1-1.75-.14,6.15,6.15,0,0,1-2.24-1.32,16.66,16.66,0,0,1-2.06-2.42,13.31,13.31,0,0,0-2.09-2.33A5.64,5.64,0,0,0,82.9,90a3.55,3.55,0,0,0-1.7,0c-.39.1-.59.22-.6.2a.68.68,0,0,1,.14-.1,2.17,2.17,0,0,1,.44-.19,3.35,3.35,0,0,1,1.75-.07,5.6,5.6,0,0,1,2.35,1.12,12.55,12.55,0,0,1,2.13,2.36,19.31,19.31,0,0,0,2,2.4A6.39,6.39,0,0,0,91.58,97a4,4,0,0,0,1.69.21C93.67,97.17,93.88,97.08,93.89,97.11Z" transform="translate(-15.93 -3.87)"/><path class="cls-6" d="M115.38,30.65c-5.31-12-20.91-4.86-20.91-4.86-7.36,2.7-8.4,11-6.7,16.63,1.89,6.27,4.44,13.85,6.86,18.16C99.51,69.23,107,67.79,107,67.79l2.5,6.15a10.44,10.44,0,0,0,13.73,5.71h0A10.45,10.45,0,0,0,129,66.29Z" transform="translate(-15.93 -3.87)"/><path class="cls-2" d="M92.1,48.54a1.25,1.25,0,0,0,1.58.77,1.2,1.2,0,0,0,.82-1.51A1.26,1.26,0,0,0,92.92,47,1.2,1.2,0,0,0,92.1,48.54Z" transform="translate(-15.93 -3.87)"/><path class="cls-2" d="M91,47c.21.1.85-.89,2.12-1.36s2.44-.18,2.52-.38-.21-.32-.73-.46a3.45,3.45,0,0,0-2.08.11,3.33,3.33,0,0,0-1.62,1.28C90.93,46.59,90.9,46.92,91,47Z" transform="translate(-15.93 -3.87)"/><path class="cls-2" d="M104,44.74a1.25,1.25,0,0,0,1.58.76,1.2,1.2,0,0,0,.82-1.51,1.27,1.27,0,0,0-1.58-.77A1.21,1.21,0,0,0,104,44.74Z" transform="translate(-15.93 -3.87)"/><path class="cls-2" d="M103.48,42.33c.2.1.85-.89,2.12-1.36s2.44-.18,2.52-.38-.21-.32-.73-.46a3.45,3.45,0,0,0-2.08.11,3.33,3.33,0,0,0-1.62,1.28C103.41,42,103.38,42.29,103.48,42.33Z" transform="translate(-15.93 -3.87)"/><path class="cls-2" d="M102.68,53.49a8.59,8.59,0,0,0-2.2.39c-.34.09-.67.13-.8-.07a1.67,1.67,0,0,1-.14-1c0-.89,0-1.83,0-2.82a45.15,45.15,0,0,0-.24-7.25A44.52,44.52,0,0,0,99,50v2.83a2,2,0,0,0,.3,1.33.88.88,0,0,0,.71.28,2.63,2.63,0,0,0,.58-.13A9.31,9.31,0,0,0,102.68,53.49Z" transform="translate(-15.93 -3.87)"/><path class="cls-7" d="M107,67.79a25,25,0,0,0,11.09-7.86s-.73,7.46-10.25,10Z" transform="translate(-15.93 -3.87)"/><path class="cls-7" d="M104.84,57.64a1.19,1.19,0,0,1,.62-2.13,1.05,1.05,0,0,1,.29-1.26,1.55,1.55,0,0,1,1.34-.25,2.09,2.09,0,0,1,1.48,2,2.27,2.27,0,0,1-1.56,2,2.5,2.5,0,0,1-2.5-.65" transform="translate(-15.93 -3.87)"/><path class="cls-2" d="M106.74,53c-.21.06.3,1.44-.52,2.86s-2.34,1.8-2.28,2,.43.15,1.06-.07a3.67,3.67,0,0,0,1.93-1.59,3.19,3.19,0,0,0,.34-2.37C107.11,53.22,106.83,52.93,106.74,53Z" transform="translate(-15.93 -3.87)"/><path class="cls-2" d="M101.55,40.52c.25.3,1.46-.33,3-.71s2.91-.41,3-.79c0-.18-.3-.43-.91-.58a5.38,5.38,0,0,0-4.58,1.14C101.61,40,101.43,40.38,101.55,40.52Z" transform="translate(-15.93 -3.87)"/><path class="cls-2" d="M89.26,43c.33.2,1.09-.42,2.14-.82s2-.53,2.1-.91c0-.18-.21-.41-.7-.54a3.16,3.16,0,0,0-1.92.17,3.22,3.22,0,0,0-1.5,1.22C89.12,42.5,89.11,42.84,89.26,43Z" transform="translate(-15.93 -3.87)"/><path class="cls-2" d="M108.89,45.56a.29.29,0,0,1-.29.29.3.3,0,0,1-.28-.3.29.29,0,0,1,.29-.28A.28.28,0,0,1,108.89,45.56Z" transform="translate(-15.93 -3.87)"/><path class="cls-2" d="M139.39,68.18s-.93-9.76-8.44-16.47,2.67-9.31-3.86-18.17a28,28,0,0,0-7.65-7.5,12.41,12.41,0,0,1-1.54-1.16,47,47,0,0,0-3.77-3.43,6.51,6.51,0,0,0-3.56-1.3h0a10.57,10.57,0,0,0-2.39-.67c-3.66-.55-7.3.92-10.72,2.36S85.28,22.9,88.09,32h0a3,3,0,0,1,4.64-1.28,5.48,5.48,0,0,1,2.17,3.54c.4,2.12,1,4.47,3.58,5a4.51,4.51,0,0,0,1.9,0c2.14-.48,3.86-3.72,7.94-2.95,0,0,4,1.24,4.22,3.74s-1.16,7.14,1.29,9.35,2.86,2.15,2.8,4.06c0,.44,0,.74,0,1-.31,3-.83,16.16,12.57,13.92l4.51-.27,5.73.14Z" transform="translate(-15.93 -3.87)"/><path class="cls-2" d="M111.26,21.48a13.64,13.64,0,0,1,4-7.29A9.53,9.53,0,0,1,123,11.72a7.4,7.4,0,0,1,6,5.3,6.05,6.05,0,0,1-3.46,6.91c-2,.76-4.21.26-6.34.21s-4.63.64-5.38,2.63" transform="translate(-15.93 -3.87)"/><path class="cls-4" d="M119.78,23.45a1.59,1.59,0,0,0-1-1.2,14.76,14.76,0,0,0-1.61-.45,4.63,4.63,0,0,1-2-1.29c-.46-.51-.79-1.11-1.24-1.62a2.45,2.45,0,0,0-1.74-.95,1.6,1.6,0,0,0-1.42,2.31,35.49,35.49,0,0,0,5.42,4,4.16,4.16,0,0,0,2.19.69A1.49,1.49,0,0,0,119.78,23.45Z" transform="translate(-15.93 -3.87)"/><path class="cls-2" d="M144.59,69.67a1.81,1.81,0,0,1,0-.38c0-.24.06-.61.09-1.08a13.5,13.5,0,0,0-.43-3.94,13.09,13.09,0,0,0-2.65-5.21A23.46,23.46,0,0,0,136,54.58a27.74,27.74,0,0,1-5.79-4.41,10.32,10.32,0,0,1-1.8-2.64,7.78,7.78,0,0,1-.72-2.68,6.39,6.39,0,0,1,.84-3.89,4.58,4.58,0,0,1,.67-.86,2,2,0,0,1,.29-.25A6.9,6.9,0,0,0,128.6,41a6.38,6.38,0,0,0-.75,3.82,7.87,7.87,0,0,0,.72,2.62A10.65,10.65,0,0,0,130.36,50a28.15,28.15,0,0,0,5.76,4.36,23.29,23.29,0,0,1,5.68,4.54,13.13,13.13,0,0,1,2.64,5.31,12.72,12.72,0,0,1,.36,4,10.65,10.65,0,0,1-.13,1.08A2.61,2.61,0,0,1,144.59,69.67Z" transform="translate(-15.93 -3.87)"/><path class="cls-3" d="M115.64,23.88a2.38,2.38,0,0,1-.16.34,8.83,8.83,0,0,1-.51,1,18.62,18.62,0,0,1-2.35,3.2,20,20,0,0,1-4.56,3.73,16.41,16.41,0,0,1-3.16,1.48,7.58,7.58,0,0,1-3.74.35,4.67,4.67,0,0,1-1.77-.76,5.9,5.9,0,0,1-1.31-1.33,31.59,31.59,0,0,1-1.72-3,9.7,9.7,0,0,0-.86-1.35,6.28,6.28,0,0,0-1-1.08,6.54,6.54,0,0,0-2.4-1.18,6.77,6.77,0,0,0-3.87.1,10.85,10.85,0,0,0-1.32.59,2,2,0,0,1,.31-.21,2.87,2.87,0,0,1,.4-.22c.17-.08.36-.17.58-.25A6.79,6.79,0,0,1,92.1,25a7,7,0,0,1,2.49,1.2,6.63,6.63,0,0,1,1.08,1.1,11.88,11.88,0,0,1,.88,1.37,31.55,31.55,0,0,0,1.72,3A5.47,5.47,0,0,0,99.53,33a4.34,4.34,0,0,0,1.68.71,7.32,7.32,0,0,0,3.61-.33A16.64,16.64,0,0,0,108,31.91a20.19,20.19,0,0,0,4.54-3.65,21.21,21.21,0,0,0,2.4-3.13c.25-.4.43-.71.55-.93S115.63,23.88,115.64,23.88Z" transform="translate(-15.93 -3.87)"/><path class="cls-3" d="M117,24.79a3.94,3.94,0,0,1,.09.64c0,.2,0,.46,0,.75s0,.63-.07,1a10.28,10.28,0,0,1-2.27,5.26,10,10,0,0,1-2.4,2.1A16.34,16.34,0,0,1,110,35.68c-.68.29-1.23.52-1.6.7a5.2,5.2,0,0,1-.58.27,2.43,2.43,0,0,1,.54-.35c.36-.21.9-.47,1.57-.77a18.63,18.63,0,0,0,2.28-1.18,9.85,9.85,0,0,0,2.32-2.06,10.54,10.54,0,0,0,2.29-5.14A17,17,0,0,0,117,24.79Z" transform="translate(-15.93 -3.87)"/><path class="cls-3" d="M132,67.37a1.83,1.83,0,0,1,0-.38c0-.26,0-.63,0-1.11a15.55,15.55,0,0,0-.58-4,17.5,17.5,0,0,0-1-2.62,15.43,15.43,0,0,0-1.69-2.73A14.79,14.79,0,0,0,126.23,54c-1-.77-2-1.46-3.07-2.31a10.79,10.79,0,0,1-1.42-1.36,7,7,0,0,1-1-1.63,11.56,11.56,0,0,1-.88-3.49c-.14-1.13-.19-2.22-.3-3.22a13.55,13.55,0,0,0-.53-2.75,6.93,6.93,0,0,0-2.1-3.39,5.63,5.63,0,0,0-1.28-.76,2.19,2.19,0,0,1,.37.13,4.45,4.45,0,0,1,1,.55,7,7,0,0,1,2.2,3.42,14.51,14.51,0,0,1,.57,2.78c.11,1,.18,2.09.31,3.22a12,12,0,0,0,.88,3.42,8,8,0,0,0,2.38,2.9c1,.83,2.09,1.52,3.06,2.31a14.52,14.52,0,0,1,2.51,2.58,15.55,15.55,0,0,1,1.7,2.77,18.63,18.63,0,0,1,1,2.66,15.27,15.27,0,0,1,.5,4.06A9.5,9.5,0,0,1,132,67C132,67.24,132,67.38,132,67.37Z" transform="translate(-15.93 -3.87)"/><path class="cls-3" d="M128.48,15.41a8.89,8.89,0,0,0-2.18-.92,7.93,7.93,0,0,0-5.53.75,11,11,0,0,0-4,4,14.15,14.15,0,0,0-.83,1.53,3,3,0,0,1-.3.57,3.52,3.52,0,0,1,.21-.61,11.74,11.74,0,0,1,.78-1.58A10.59,10.59,0,0,1,120.66,15a7.92,7.92,0,0,1,5.68-.71A6,6,0,0,1,128,15a4.21,4.21,0,0,1,.39.28Z" transform="translate(-15.93 -3.87)"/><path class="cls-3" d="M127.71,21s-.54-.35-1.48-.75a8.8,8.8,0,0,0-3.89-.69,8.63,8.63,0,0,0-3.79,1.12c-.89.5-1.36.94-1.39.91a1.75,1.75,0,0,1,.31-.33,8.52,8.52,0,0,1,1-.73,8.23,8.23,0,0,1,7.84-.43,7.05,7.05,0,0,1,1.07.61A1.51,1.51,0,0,1,127.71,21Z" transform="translate(-15.93 -3.87)"/><polygon class="cls-8" points="82.06 145.64 41.62 142.22 76.42 132.07 113.02 132.12 82.06 145.64"/><path class="cls-2" d="M98,149.51l.56-.26,1.64-.73,6.25-2.76,22.46-9.85,0,.19-36.6,0h0l-3.1.91-31.7,9.24,0-.21,29.23,2.51,8.27.73,2.18.2.56.06.2,0h-.19l-.56,0-2.19-.17-8.26-.67L57.54,146.2l-.57,0,.55-.16,31.7-9.27,3.09-.9h0l36.6.08h.48l-.44.19-22.51,9.78-6.27,2.71-1.65.7Z" transform="translate(-15.93 -3.87)"/><polygon class="cls-9" points="41.62 142.22 2.71 139.35 39.82 132.33 74.98 132.33 41.62 142.22"/><path class="cls-2" d="M57.55,146.1l.61-.2,1.77-.54,6.76-2,24.19-7.22,0,.2-35.16,0h0l-3.34.64-33.76,6.37,0-.21,28.16,2.12,7.93.62,2.09.17.54.05.18,0h-.18l-.54,0-2.09-.14-7.93-.55-28.17-2-.8-.06.79-.15,33.75-6.4,3.35-.63h0l35.16,0h.7l-.67.19L66.7,143.45l-6.76,2-1.78.51Z" transform="translate(-15.93 -3.87)"/><path class="cls-8" d="M57.55,146.1s-.91-8.45-7.92-7.76-16.33,5.4-24,5.4l-8.21-.64L35,139.5s43.48-9.18,43.48-8.89,14.62-3.24,14.1,5.43Z" transform="translate(-15.93 -3.87)"/><path class="cls-2" d="M57.55,146.1l.65-.2,1.87-.55,7.08-2.06,25.35-7.35-.07.09a5.79,5.79,0,0,0-.31-2.33,4.18,4.18,0,0,0-1.44-1.89,9.14,9.14,0,0,0-4.74-1.5,27.47,27.47,0,0,0-5.27.16l-1.35.17c-.22,0-.45.07-.68.09a1.32,1.32,0,0,1-.2,0h0a.13.13,0,0,1-.07-.06c0-.06,0-.07,0,0s.06,0,0,0h-.08l-.34.05c-.9.15-1.81.32-2.72.5-7.31,1.44-15,3.07-23.07,4.74L34.06,139.8l-16.6,3.41V143l8.21.64h0a33.48,33.48,0,0,0,7.87-1.19c2.45-.64,4.75-1.36,6.91-2s4.2-1.25,6.11-1.66a27.09,27.09,0,0,1,2.77-.46,7.52,7.52,0,0,1,2.56.07,6.15,6.15,0,0,1,3.58,2.32,10.1,10.1,0,0,1,1.5,2.81,13.36,13.36,0,0,1,.51,1.91,5.56,5.56,0,0,1,.09.67l0-.17-.09-.5a14.29,14.29,0,0,0-.54-1.89,10.05,10.05,0,0,0-1.51-2.78,6.09,6.09,0,0,0-3.53-2.25,7.54,7.54,0,0,0-2.52-.07q-1.34.17-2.76.48c-1.9.41-3.93,1-6.09,1.67s-4.46,1.39-6.92,2a33.06,33.06,0,0,1-7.91,1.21h0l-8.22-.63-.75-.06.74-.15L34,139.57l18.12-3.8c8-1.67,15.77-3.29,23.08-4.72.91-.18,1.82-.36,2.73-.51s1.8-.2,2.7-.29a28,28,0,0,1,5.32-.16,9.41,9.41,0,0,1,4.85,1.55,4.46,4.46,0,0,1,1.5,2,5.71,5.71,0,0,1,.31,2.41v.07l-.07,0L67.11,143.4l-7.07,2-1.86.53Z" transform="translate(-15.93 -3.87)"/><path class="cls-8" d="M97.14,146.69c-.74,0-26.74-2-26.74-2" transform="translate(-15.93 -3.87)"/><path class="cls-2" d="M70.4,144.65a1.1,1.1,0,0,1,.27,0l.78,0,2.87.18,9.45.69,9.45.75,2.87.26.78.08a.84.84,0,0,1,.27.05h-.27l-.78,0-2.87-.18-9.46-.68L74.31,145l-2.86-.26-.78-.08Z" transform="translate(-15.93 -3.87)"/><path class="cls-8" d="M101.43,144.92c-.73,0-26.74-2-26.74-2" transform="translate(-15.93 -3.87)"/><path class="cls-2" d="M74.69,142.88H75l.78,0,2.86.19,9.46.68,9.45.76,2.86.25.78.09.27,0a.92.92,0,0,1-.27,0l-.78,0-2.86-.18L88.06,144l-9.46-.76L75.74,143l-.78-.09Z" transform="translate(-15.93 -3.87)"/><path class="cls-8" d="M108.25,142.88c-.73,0-28-1.63-28-1.63" transform="translate(-15.93 -3.87)"/><path class="cls-2" d="M80.27,141.25h.29l.82,0,3,.14,9.89.54,9.89.61,3,.21.82.07.28,0H108l-.82,0-3-.13-9.89-.54-9.89-.61-3-.22-.81-.06A1,1,0,0,1,80.27,141.25Z" transform="translate(-15.93 -3.87)"/><path class="cls-8" d="M114.11,140.65c-.73,0-28.26-1-28.26-1" transform="translate(-15.93 -3.87)"/><path class="cls-2" d="M85.85,139.63H87l3,.07,10,.33,10,.4,3,.14.83.06a1.07,1.07,0,0,1,.28,0H113l-3-.08-10-.32-10-.4-3-.14-.82-.06Z" transform="translate(-15.93 -3.87)"/><path class="cls-8" d="M119.34,138.12,91.43,138" transform="translate(-15.93 -3.87)"/><path class="cls-2" d="M91.44,138c0-.06,6.24-.09,14-.06s14,.11,14,.18-6.25.09-14,.06S91.44,138.07,91.44,138Z" transform="translate(-15.93 -3.87)"/><path class="cls-2" d="M51.06,136.23a2,2,0,0,1,.54-.17,8.47,8.47,0,0,1,1.55-.18,9,9,0,0,1,4.92,1.37,8.8,8.8,0,0,1,3.32,3.87,7.7,7.7,0,0,1,.5,1.47,2.62,2.62,0,0,1,.09.57,16.24,16.24,0,0,0-.74-2,9,9,0,0,0-8.09-5.14A16.33,16.33,0,0,0,51.06,136.23Z" transform="translate(-15.93 -3.87)"/><path class="cls-2" d="M55.33,135.1a1.77,1.77,0,0,1,.55-.17,8.47,8.47,0,0,1,1.55-.18A8.8,8.8,0,0,1,65.67,140a7.7,7.7,0,0,1,.5,1.47,2.92,2.92,0,0,1,.08.57,17.06,17.06,0,0,0-.73-2,9,9,0,0,0-8.09-5.14A14.6,14.6,0,0,0,55.33,135.1Z" transform="translate(-15.93 -3.87)"/><path class="cls-2" d="M59.76,134.31a1.83,1.83,0,0,1,.54-.17,9.75,9.75,0,0,1,1.51-.25,8.77,8.77,0,0,1,2.29.11,7.2,7.2,0,0,1,2.6,1A8.92,8.92,0,0,1,70,138.88a7.33,7.33,0,0,1,.48,1.46,2.42,2.42,0,0,1,.09.56,19.69,19.69,0,0,0-.73-2,9.22,9.22,0,0,0-3.23-3.71,7.83,7.83,0,0,0-4.75-1.18C60.54,134.13,59.77,134.35,59.76,134.31Z" transform="translate(-15.93 -3.87)"/><path class="cls-2" d="M64.48,133.33a2.61,2.61,0,0,1,.52-.17,11.21,11.21,0,0,1,1.46-.28,7.36,7.36,0,0,1,2.22.07A6.53,6.53,0,0,1,71.16,134a8.93,8.93,0,0,1,3.1,3.77,7.28,7.28,0,0,1,.46,1.42,2.54,2.54,0,0,1,.08.54,18.61,18.61,0,0,0-.7-1.89A9.14,9.14,0,0,0,71,134.23a6.44,6.44,0,0,0-2.4-1.06,7.38,7.38,0,0,0-2.15-.12C65.24,133.17,64.49,133.38,64.48,133.33Z" transform="translate(-15.93 -3.87)"/><path class="cls-2" d="M69.34,132.57a3.48,3.48,0,0,1,.49-.17c.32-.09.79-.23,1.38-.36a5.62,5.62,0,0,1,2.12-.08,5.84,5.84,0,0,1,2.35,1.12,8.92,8.92,0,0,1,2.89,3.68,8,8,0,0,1,.43,1.36,1.52,1.52,0,0,1,.07.51,18,18,0,0,0-.66-1.8,9.12,9.12,0,0,0-2.87-3.56,5.72,5.72,0,0,0-2.25-1.09,5.57,5.57,0,0,0-2.05,0C70.07,132.43,69.35,132.61,69.34,132.57Z" transform="translate(-15.93 -3.87)"/><path class="cls-6" d="M67.12,119.7a17.43,17.43,0,0,0,3.74-.17,3.56,3.56,0,0,1,3.31,1.33,3,3,0,0,1,0,2.72,8.79,8.79,0,0,1-1.7,2.24" transform="translate(-15.93 -3.87)"/><rect class="cls-2" x="48.84" y="116.33" width="32.4" height="2.89" rx="0.87" transform="translate(101.92 -9.84) rotate(52.02)"/><rect class="cls-2" x="53.39" y="103.83" width="2.79" height="1.3" rx="0.39" transform="translate(87.5 -6.87) rotate(52.02)"/><polygon class="cls-2" points="57.23 126.61 60.42 129.06 60.75 128.8 59.81 125.43 57.23 126.61"/><path class="cls-2" d="M60.81,116l0,0-6.14-7.87a2.06,2.06,0,0,1,.11-2.89L55,105a.05.05,0,0,1,.08,0,.06.06,0,0,1,0,.08l-.3.23a2,2,0,0,0-.09,2.73l6.14,7.87a.06.06,0,0,1,0,.08Z" transform="translate(-15.93 -3.87)"/><path class="cls-6" d="M64.32,117.23s-2-1.7-3.49-1.5-6.49,5.59-6.69,8.78-1.49,5.08.8,6.38,5.89,3.39,8.28,2.69c0,0,4.22.48,4.69-.65,0,0,3.71,1.19,4-1.34,0,0,2.66-.42,2.5-2.05S64.32,117.23,64.32,117.23Z" transform="translate(-15.93 -3.87)"/><path class="cls-7" d="M71.89,131.59s-2.35-2.11-5.15-4.82-5-4.94-5-5,2.36,2.11,5.16,4.82S71.94,131.54,71.89,131.59Z" transform="translate(-15.93 -3.87)"/><path class="cls-7" d="M67.91,132.93a1.35,1.35,0,0,1-.43-.17,11.93,11.93,0,0,1-1.11-.59A22.74,22.74,0,0,1,63,129.72c-1.24-1.05-2.29-2.07-3.06-2.81l-.89-.88c-.21-.22-.32-.34-.3-.35a1.86,1.86,0,0,1,.36.28c.23.19.55.47,1,.83.79.71,1.86,1.7,3.09,2.75A31.66,31.66,0,0,0,66.45,132C67.34,132.6,67.93,132.9,67.91,132.93Z" transform="translate(-15.93 -3.87)"/><path class="cls-7" d="M63.33,133.41a4.66,4.66,0,0,1-1.13-.47,25.83,25.83,0,0,1-2.52-1.53,23.69,23.69,0,0,1-2.33-1.82,5.13,5.13,0,0,1-.87-.87,7.88,7.88,0,0,1,1,.74c.59.47,1.42,1.1,2.36,1.75s1.83,1.2,2.48,1.58A10.3,10.3,0,0,1,63.33,133.41Z" transform="translate(-15.93 -3.87)"/><path class="cls-6" d="M157.81,118.72a15.2,15.2,0,0,0-9.49-1.16c-5.43,1.07-16.83,3.78-20.77,4.24S107,126,107,126l1.75,9.89,54.3-.12C164,129.78,165.85,122.39,157.81,118.72Z" transform="translate(-15.93 -3.87)"/><path class="cls-6" d="M105.07,135.86h3.65l5.87-11.55c-.75-.13-16.44-2.45-17.36-2.2l-3.76,13.36S104.74,135.86,105.07,135.86Z" transform="translate(-15.93 -3.87)"/><path class="cls-6" d="M94.35,135.69s.1,0,.26.06c1.3.14,7.28-.23,7.28-.23.27-.77-.25-3.09-1-3.23s-7.11.3-7.11.3-1,.13-1.25,1.81C92.38,135.44,94.35,135.69,94.35,135.69Z" transform="translate(-15.93 -3.87)"/><path class="cls-6" d="M92.33,132.29s.1,0,.26.06c1.3.14,7,.08,7.19-.61s-.16-2.71-.9-2.84-7.11.29-7.11.29-1,.13-1.25,1.82C90.36,132.05,92.33,132.29,92.33,132.29Z" transform="translate(-15.93 -3.87)"/><path class="cls-6" d="M91.33,129s.1,0,.26.05c1.29.15,7,.08,7.19-.6s-.16-2.71-.9-2.85-7.11.3-7.11.3-1,.13-1.26,1.81C89.36,128.72,91.33,129,91.33,129Z" transform="translate(-15.93 -3.87)"/><path class="cls-6" d="M90.39,125.66s.1,0,.26.06c1.29.14,6.95.08,7.19-.61s-.16-2.7-.91-2.84-7.11.29-7.11.29-1,.13-1.25,1.82C88.42,125.42,90.39,125.66,90.39,125.66Z" transform="translate(-15.93 -3.87)"/><path class="cls-7" d="M99.25,132.26a11.32,11.32,0,0,1-2.76.26,10.47,10.47,0,0,1-2.72-.1,11.19,11.19,0,0,1,2.75-.26A10.58,10.58,0,0,1,99.25,132.26Z" transform="translate(-15.93 -3.87)"/><path class="cls-7" d="M99.28,128.93a21.92,21.92,0,0,1-3.92.3,21.57,21.57,0,0,1-3.92,0,20.7,20.7,0,0,1,3.91-.3A21.71,21.71,0,0,1,99.28,128.93Z" transform="translate(-15.93 -3.87)"/><path class="cls-7" d="M99,125.54a21.92,21.92,0,0,1-3.92.3,21.57,21.57,0,0,1-3.92,0,21.87,21.87,0,0,1,3.91-.3A21.65,21.65,0,0,1,99,125.54Z" transform="translate(-15.93 -3.87)"/><path class="cls-6" d="M108.08,123.45s-10.67-4.75-11.34-4.07a16.19,16.19,0,0,0-1.69,2.89Z" transform="translate(-15.93 -3.87)"/><rect class="cls-10" width="153.19" height="153.19"/></g></svg>