<svg xmlns="http://www.w3.org/2000/svg" viewBox="0 0 153.19 153.19"><defs><style>.cls-1{fill:#ebebeb;}.cls-2{fill:#263238;}.cls-3{fill:#ffbe9d;}.cls-4{fill:#eb996e;}.cls-5{fill:#455a64;}.cls-6{fill:#e0e0e0;}.cls-7{fill:#2d2d5e;}.cls-8{opacity:0.3;}.cls-9{fill:#fff;}.cls-10{fill:#ff725e;}.cls-11,.cls-12{fill:none;}.cls-11{stroke:#fff2ec;stroke-miterlimit:10;}</style></defs><title>4612875</title><g id="Background_Simple" data-name="Background Simple"><path class="cls-1" d="M151.69,30.76l-.79-1.3a34.39,34.39,0,0,0-31.38-16.78,31.91,31.91,0,0,0-4.86.67A36.1,36.1,0,0,0,88.92,35.72c-2.45,6.57-3.13,14.14-7.78,19.36-6,6.79-16.31,7-25.33,6.72s-19.29,0-25.31,6.77c-3.77,4.27-5,10.34-4.66,16.06.8,15.14,11.35,28.67,24.76,35.4s29.21,7.33,43.89,4.37c20.57-4.15,40.12-15.53,51.88-33.12S161.1,49.74,151.69,30.76Z" transform="translate(-15.93 -3.87)"/></g><g id="Character"><path class="cls-2" d="M78.94,48.24a10.76,10.76,0,0,0-5.89-7.12h0a6.6,6.6,0,0,0-7.27-.21,7.46,7.46,0,0,0-3.42,7.19,10.31,10.31,0,0,0,4.27,7c2.49,1.85,6,2.7,8.74,1.3A7.53,7.53,0,0,0,78.94,48.24Z" transform="translate(-15.93 -3.87)"/><path class="cls-3" d="M93.87,75.61Z" transform="translate(-15.93 -3.87)"/><path class="cls-3" d="M104.23,41.7A14.47,14.47,0,0,0,91,27.05,14.06,14.06,0,0,0,75.75,40.39L75.3,72.08a2.73,2.73,0,0,0,.56,1.7c2,2.63,9.38,20.06,12.4,20.34S90.16,78,92.57,76.55a2.68,2.68,0,0,0,1.26-2.37l-.19-7.08a0,0,0,0,1,0,0,9.34,9.34,0,0,0,2-.15c1.86-.54,6.54-2.59,7.82-9.66C103.91,54.89,104.14,48.28,104.23,41.7Z" transform="translate(-15.93 -3.87)"/><path class="cls-2" d="M94.31,52.51a8.69,8.69,0,0,1,2-.31c.32,0,.63-.08.68-.3a1.54,1.54,0,0,0-.19-.93l-.9-2.41a41.09,41.09,0,0,1-2-6.31,39.73,39.73,0,0,1,2.52,6.14c.3.84.59,1.65.86,2.42a1.84,1.84,0,0,1,.14,1.24.77.77,0,0,1-.53.44,2.36,2.36,0,0,1-.55.07A8.61,8.61,0,0,1,94.31,52.51Z" transform="translate(-15.93 -3.87)"/><path class="cls-2" d="M100.32,47a1.14,1.14,0,0,1-1.15,1.12A1.1,1.1,0,0,1,98,47.08,1.14,1.14,0,0,1,99.14,46,1.11,1.11,0,0,1,100.32,47Z" transform="translate(-15.93 -3.87)"/><path class="cls-2" d="M102,43.19c-.1.13-1,.11-2.2.56s-1.92,1.11-2.07,1.08,0-.21.34-.5a5.5,5.5,0,0,1,1.62-1,4.73,4.73,0,0,1,1.79-.35C101.87,43,102,43.13,102,43.19Z" transform="translate(-15.93 -3.87)"/><path class="cls-2" d="M89,46.68a1.15,1.15,0,0,1-1.14,1.13,1.12,1.12,0,0,1-1.18-1.06,1.14,1.14,0,0,1,1.14-1.13A1.12,1.12,0,0,1,89,46.68Z" transform="translate(-15.93 -3.87)"/><path class="cls-2" d="M89.69,44.81c-.18,0-.86-.73-2.08-1.31s-2.28-.7-2.37-.84.17-.14.64-.09a5.9,5.9,0,0,1,2,.58,5.32,5.32,0,0,1,1.6,1.14C89.73,44.61,89.78,44.81,89.69,44.81Z" transform="translate(-15.93 -3.87)"/><path class="cls-4" d="M93.64,67.05s-4.84.27-10.82-3.44c0,0,1.79,6.32,10.88,5.7Z" transform="translate(-15.93 -3.87)"/><path class="cls-4" d="M93.73,55.46a2.26,2.26,0,0,0-2-.87,2.06,2.06,0,0,0-1.43.71,1.27,1.27,0,0,0-.13,1.47,1.53,1.53,0,0,0,1.63.44,4.46,4.46,0,0,0,1.62-.9,1.38,1.38,0,0,0,.37-.35.42.42,0,0,0,0-.46" transform="translate(-15.93 -3.87)"/><path class="cls-2" d="M90.62,53.27c.2,0,.18,1.33,1.32,2.3s2.6.87,2.6,1-.32.26-.94.26a3.5,3.5,0,0,1-2.17-.8,2.86,2.86,0,0,1-1-1.93C90.37,53.59,90.52,53.26,90.62,53.27Z" transform="translate(-15.93 -3.87)"/><path class="cls-2" d="M90.34,39.38c-.17.31-1.38,0-2.86-.07s-2.71.18-2.86-.14c-.07-.16.18-.44.7-.69a4.85,4.85,0,0,1,2.19-.42,4.93,4.93,0,0,1,2.17.58C90.18,38.93,90.41,39.23,90.34,39.38Z" transform="translate(-15.93 -3.87)"/><path class="cls-2" d="M102.25,39.25c-.22.27-1.08,0-2.12-.07S98.22,39.32,98,39c-.09-.14.06-.42.45-.68a3,3,0,0,1,1.73-.41,3,3,0,0,1,1.68.6C102.24,38.83,102.35,39.12,102.25,39.25Z" transform="translate(-15.93 -3.87)"/><path class="cls-2" d="M92,25.42a4.22,4.22,0,0,0-3.31-1.68c-5.57-.59-11.6,3-14.49,7.83S71.48,43.33,74,48.35l2.81-1.81c4.31-.46,10.32-10.76,16.08-17.69C93.59,28,92.63,26.35,92,25.42Z" transform="translate(-15.93 -3.87)"/><path class="cls-2" d="M102.78,28.56C100.35,26,96.44,23,91.71,25c-.64,1.38.86,3.06,2.1,4A36.82,36.82,0,0,1,98.3,33c2.46,2.77,5.89,7.3,5.89,11.28,0,3.07-.2,2.93,0,2.88a19.32,19.32,0,0,0,1.88-4.36C107.6,34.78,105.22,31.09,102.78,28.56Z" transform="translate(-15.93 -3.87)"/><path class="cls-3" d="M77.34,46c-.13-.07-5.34-1.86-5.42,3.54s5.36,4.36,5.37,4.2S77.34,46,77.34,46Z" transform="translate(-15.93 -3.87)"/><path class="cls-4" d="M75.67,51.71s-.1.06-.26.13a.92.92,0,0,1-.7,0,2.31,2.31,0,0,1-1-2.1A3.06,3.06,0,0,1,74,48.4a1.09,1.09,0,0,1,.72-.71.48.48,0,0,1,.55.27c.07.15,0,.26.06.27s.12-.09.08-.32a.61.61,0,0,0-.21-.34.74.74,0,0,0-.52-.14,1.33,1.33,0,0,0-1,.82,3.16,3.16,0,0,0-.35,1.5,2.45,2.45,0,0,0,1.34,2.35,1,1,0,0,0,.86-.13C75.66,51.84,75.69,51.72,75.67,51.71Z" transform="translate(-15.93 -3.87)"/><path class="cls-5" d="M88.71,23.74a2,2,0,0,1,1.08,0,4.78,4.78,0,0,1,2.26,1.34,4.35,4.35,0,0,1,.46.6,2.61,2.61,0,0,1,.28.66,7.24,7.24,0,0,1,.34,1.12,1.67,1.67,0,0,1,0,1.09c-.06,0,0-.42-.18-1-.09-.31-.23-.67-.39-1.07a3.56,3.56,0,0,0-.28-.59,4.32,4.32,0,0,0-.43-.55A5.15,5.15,0,0,0,89.73,24C89.12,23.81,88.71,23.8,88.71,23.74Z" transform="translate(-15.93 -3.87)"/><path class="cls-6" d="M74.39,46a2.68,2.68,0,0,1-.6-.7,9.14,9.14,0,0,1-1-2,12.05,12.05,0,0,1-.6-2.13,3.41,3.41,0,0,1-.09-.91s.08.34.21.88a16,16,0,0,0,.64,2.1,11.39,11.39,0,0,0,1,2C74.18,45.67,74.41,45.94,74.39,46Z" transform="translate(-15.93 -3.87)"/><path class="cls-2" d="M92.88,28.85l-.16.2-.46.57c-.4.51-1,1.24-1.6,2.19s-1.36,2.11-2.13,3.41S86.93,38,86,39.45a33.56,33.56,0,0,1-2.89,4c-.5.57-1,1.12-1.47,1.58a6.37,6.37,0,0,1-1.54,1.1,3.42,3.42,0,0,1-1.51.37,2.9,2.9,0,0,1-1.15-.23,2.19,2.19,0,0,1-.62-.41l-.13-.14,0-.06a2.75,2.75,0,0,0,.81.55A3.18,3.18,0,0,0,80.05,46,10.4,10.4,0,0,0,83,43.35a34.51,34.51,0,0,0,2.87-4c.93-1.48,1.76-2.92,2.54-4.22s1.5-2.46,2.16-3.4a26.75,26.75,0,0,1,1.65-2.16L92.7,29C92.81,28.91,92.87,28.84,92.88,28.85Z" transform="translate(-15.93 -3.87)"/><path class="cls-2" d="M73.5,55.32a3,3,0,0,1-.49.81,4.61,4.61,0,0,1-2.14,1.45,5.38,5.38,0,0,1-3.8-.11,7.55,7.55,0,0,1-3.5-3.09,10.11,10.11,0,0,1-1.38-5.55c0-.35,0-.68.1-1a11.58,11.58,0,0,1,.4-1.75,9.31,9.31,0,0,1,1.14-2.33c.16-.26.33-.44.42-.57l.16-.18s-.2.27-.52.79a9.71,9.71,0,0,0-1.08,2.33,10.07,10.07,0,0,0-.38,1.73c-.06.31-.06.64-.09,1s0,.69,0,1.05a9.74,9.74,0,0,0,1.36,4.41,7.5,7.5,0,0,0,3.42,3,5.3,5.3,0,0,0,3.7.15A4.6,4.6,0,0,0,73,56.09,6.4,6.4,0,0,0,73.5,55.32Z" transform="translate(-15.93 -3.87)"/><path class="cls-6" d="M65.37,54.1,65.29,54c0-.1-.12-.23-.19-.42a7.3,7.3,0,0,1-.46-1.64,8.45,8.45,0,0,1,0-2.53,8.09,8.09,0,0,1,5.29-6.44,8.11,8.11,0,0,1,1.65-.4c.2,0,.36,0,.47,0h.16l-.62.1a7.86,7.86,0,0,0-1.62.45,8.28,8.28,0,0,0-2.16,1.22,8,8,0,0,0-2,2.27,8.33,8.33,0,0,0-1,5.34,8.7,8.7,0,0,0,.4,1.64A3.52,3.52,0,0,1,65.37,54.1Z" transform="translate(-15.93 -3.87)"/><path class="cls-5" d="M69.33,56.41a.94.94,0,0,1-.06-.12c0-.09-.1-.21-.16-.38a10.33,10.33,0,0,1-.22-6.38,10.49,10.49,0,0,1,2.43-4.31,8.83,8.83,0,0,1,1.1-1c.14-.12.26-.19.33-.25l.13-.07-.42.37a12.57,12.57,0,0,0-1.06,1.05,11.18,11.18,0,0,0-2.35,4.26,11,11,0,0,0-.23,4.87,10.84,10.84,0,0,0,.36,1.45A3.14,3.14,0,0,1,69.33,56.41Z" transform="translate(-15.93 -3.87)"/><path class="cls-6" d="M74.05,31.36l.2,0,.57.1c.25.05.55.1.91.14a11.72,11.72,0,0,0,1.2.14l.7.06.77,0c.53,0,1.09,0,1.68,0a27.33,27.33,0,0,0,3.84-.41,28.36,28.36,0,0,0,3.73-1c.56-.21,1.09-.4,1.57-.62.24-.1.48-.19.7-.3l.64-.31c.41-.19.76-.39,1.07-.56s.58-.33.8-.46l.49-.3a1.11,1.11,0,0,1,.18-.09.62.62,0,0,1-.16.12l-.48.33c-.21.14-.47.31-.78.48s-.66.39-1.07.59l-.63.32c-.22.11-.46.21-.7.31-.48.23-1,.42-1.58.63a25.42,25.42,0,0,1-3.75,1,27.67,27.67,0,0,1-3.86.4c-.6,0-1.17,0-1.7,0l-.76,0-.71-.08c-.45,0-.85-.11-1.21-.16s-.65-.12-.9-.17l-.57-.13C74.11,31.39,74.05,31.37,74.05,31.36Z" transform="translate(-15.93 -3.87)"/><path class="cls-5" d="M91.56,30.49l-.15.12a5.4,5.4,0,0,1-.45.33c-.4.28-1,.67-1.75,1.1a27.34,27.34,0,0,1-2.73,1.39,16.71,16.71,0,0,1-3.56,1.16,9.29,9.29,0,0,1-2,.14,14.6,14.6,0,0,1-1.8-.14,15.28,15.28,0,0,1-3-.73A14,14,0,0,1,74.31,33a5.23,5.23,0,0,1-.49-.28c-.11-.07-.17-.1-.16-.11s.24.12.68.33a14.66,14.66,0,0,0,1.89.78,15.42,15.42,0,0,0,3,.69,16.54,16.54,0,0,0,1.79.13,8.92,8.92,0,0,0,1.91-.14,16.8,16.8,0,0,0,3.53-1.14c1-.45,2-.92,2.73-1.34s1.36-.79,1.77-1.05l.47-.31C91.5,30.51,91.55,30.48,91.56,30.49Z" transform="translate(-15.93 -3.87)"/><path class="cls-5" d="M102.9,28.85a1.52,1.52,0,0,1-.35.13,8.55,8.55,0,0,1-1,.27,13.44,13.44,0,0,1-3.38.32A13.71,13.71,0,0,1,94.83,29a7.31,7.31,0,0,1-1-.34,1.19,1.19,0,0,1-.34-.16s.51.17,1.34.39a15.09,15.09,0,0,0,3.32.48,15.28,15.28,0,0,0,3.35-.25C102.38,29,102.89,28.82,102.9,28.85Z" transform="translate(-15.93 -3.87)"/><path class="cls-5" d="M105.22,32.38a1.12,1.12,0,0,1-.34.13,2.56,2.56,0,0,1-.41.12,4,4,0,0,1-.56.1,7.67,7.67,0,0,1-1.49.07,12.28,12.28,0,0,1-1.81-.21,16.35,16.35,0,0,1-3.15-1c-.39-.16-.7-.3-.91-.41a1.71,1.71,0,0,1-.32-.19s.49.2,1.27.49a20.18,20.18,0,0,0,3.14.9,13.73,13.73,0,0,0,1.79.23,8.46,8.46,0,0,0,1.46,0C104.72,32.53,105.21,32.34,105.22,32.38Z" transform="translate(-15.93 -3.87)"/><path class="cls-7" d="M110.06,80.35s3.67,1.17,5.14,4,7.93,6.29,10.72,11.27,10.73,13.62,11,17.73-2.82,17.26-2.82,17.26h-26l-2.45-33.63Z" transform="translate(-15.93 -3.87)"/><path class="cls-7" d="M75.42,63.61l-4.18,8a18,18,0,0,0-3.51-1,4.64,4.64,0,0,0-2.79,1s-3.08.3-4.25,1.18-7.77,4.4-7.77,4.4S38.69,110.67,39.13,116s2.2,15,2.2,15l66.81-.34s3.43-21.8,3.58-30.6a130.82,130.82,0,0,0-1.62-19.5A6.68,6.68,0,0,0,106,78c-2.64-.42-5-2-6.75-2.33l-5.57-8.21s-2.79,13.66-5.22,20.38Z" transform="translate(-15.93 -3.87)"/><path class="cls-2" d="M89.08,86l0,.12-.11.36-.46,1.37c-.19.59-.44,1.32-.75,2.16s-.63,1.79-1,2.83-.84,2.2-1.34,3.41-1,2.52-1.64,3.88c-1.19,2.71-2.57,5.66-4.12,8.71s-3.14,5.89-4.63,8.45c-.76,1.27-1.48,2.49-2.18,3.6s-1.36,2.15-2,3.09-1.18,1.77-1.68,2.51-.94,1.36-1.31,1.87L67,129.52l-.22.3c0,.07-.08.11-.08.1l.07-.11.21-.31.81-1.19c.36-.51.79-1.14,1.28-1.89s1.06-1.57,1.66-2.52,1.27-2,2-3.1,1.41-2.32,2.16-3.6c1.49-2.56,3.06-5.41,4.62-8.45s2.93-6,4.13-8.69c.59-1.36,1.15-2.65,1.64-3.87s1-2.36,1.36-3.4.76-2,1.07-2.83.57-1.55.78-2.14.37-1,.49-1.36l.13-.35C89.06,86,89.07,86,89.08,86Z" transform="translate(-15.93 -3.87)"/><path class="cls-2" d="M80.11,107.21a.66.66,0,0,1,0-.09l-.06-.27c0-.26-.11-.61-.19-1-.17-.93-.41-2.25-.71-3.87-.62-3.26-1.52-7.76-2.72-12.68s-2.49-9.32-3.5-12.48c-.5-1.58-.92-2.86-1.22-3.73-.14-.44-.26-.78-.34-1l-.08-.26,0-.1s0,0,0,.09l.1.26.37,1c.32.87.76,2.15,1.28,3.72,1,3.16,2.34,7.56,3.54,12.48s2.09,9.43,2.68,12.7c.29,1.63.51,3,.65,3.87l.17,1.06,0,.28A.62.62,0,0,1,80.11,107.21Z" transform="translate(-15.93 -3.87)"/><path class="cls-2" d="M100.72,76.59a.73.73,0,0,1,.07.13l.18.4c.07.18.17.39.26.66s.22.56.32.91a20.89,20.89,0,0,1,.61,2.59,22.48,22.48,0,0,1,.29,3.5,29.25,29.25,0,0,1-1.46,9A64.72,64.72,0,0,1,96.51,104L87,122l-2.9,5.43c-.35.64-.62,1.13-.8,1.48l-.21.38-.08.12.06-.13.2-.39.77-1.49c.68-1.29,1.65-3.16,2.86-5.45,2.42-4.61,5.78-11,9.48-18a65.79,65.79,0,0,0,4.48-10.22,29.68,29.68,0,0,0,1.49-9,23.91,23.91,0,0,0-.26-3.49,19.33,19.33,0,0,0-.59-2.58c-.09-.35-.21-.65-.3-.91a5.38,5.38,0,0,0-.25-.67l-.16-.4Z" transform="translate(-15.93 -3.87)"/><path class="cls-2" d="M109,95.64a.55.55,0,0,1,0-.2l-.05-.55c0-.48-.1-1.18-.21-2s-.25-1.88-.46-3-.49-2.35-.84-3.62-.76-2.46-1.15-3.54-.8-2-1.15-2.81-.66-1.42-.88-1.85l-.25-.5c0-.12-.08-.18-.07-.18a1.21,1.21,0,0,1,.1.16l.28.49c.24.42.56,1,.93,1.83s.78,1.74,1.19,2.81.8,2.27,1.16,3.54.63,2.51.84,3.64.34,2.15.42,3,.14,1.56.16,2v.76Z" transform="translate(-15.93 -3.87)"/><path class="cls-2" d="M131.66,110.28l-.25.07c-.16.05-.41.1-.72.2-.62.16-1.51.43-2.59.82a48,48,0,0,0-8.11,3.86c-.79.42-1.58.73-2.35,1.06l-2.21.92c-1.41.57-2.69,1.08-3.76,1.49s-2,.72-2.57.93l-.71.23-.25.07a1.13,1.13,0,0,1,.24-.1l.7-.26,2.54-1c1.07-.42,2.35-.93,3.75-1.52l2.21-.92c.75-.33,1.56-.66,2.32-1.06a44.47,44.47,0,0,1,8.16-3.82c1.09-.38,2-.63,2.62-.78.31-.08.56-.12.72-.16A.74.74,0,0,1,131.66,110.28Z" transform="translate(-15.93 -3.87)"/><path class="cls-2" d="M110.3,107.21s0-.07,0-.2l.09-.58c.09-.5.23-1.22.42-2.11.38-1.78,1-4.22,1.59-6.91s1.17-5.15,1.49-6.94c.17-.89.28-1.61.36-2.11l.08-.58a.69.69,0,0,1,0-.2s0,.07,0,.2l0,.58c0,.51-.15,1.24-.3,2.14-.29,1.79-.82,4.24-1.45,6.94s-1.21,5.12-1.63,6.91c-.2.87-.36,1.58-.47,2.09l-.13.57Z" transform="translate(-15.93 -3.87)"/><g class="cls-8"><path class="cls-9" d="M61.21,80s-1-2.27.67-3.18,3,.91,3,.91,1.56-1.9,3.18-.28c1.12,1.12,0,2.71,0,2.71s2.59,1,.92,3.26a1.92,1.92,0,0,1-2.83.32,1.82,1.82,0,0,1-1.63,2.39c-2.23.32-2-2.35-2-2.35s-2.72,1-3-1.55A1.81,1.81,0,0,1,61.21,80Z" transform="translate(-15.93 -3.87)"/></g><path class="cls-7" d="M66.16,81.52a.3.3,0,0,0-.22.11l-.75-.26a1.36,1.36,0,0,0,0-.2.86.86,0,0,0-.08-.36l.64-.43a.33.33,0,0,0,.15,0,.27.27,0,1,0-.27-.27.13.13,0,0,0,0,.06l-.64.43a.81.81,0,0,0-.35-.25l.23-.81h0a.27.27,0,1,0-.27-.27.25.25,0,0,0,.07.19l-.25.84h-.09a.72.72,0,0,0-.29.06l-.37-.75,0,0a.27.27,0,0,0,.11-.18.27.27,0,0,0-.54-.07.28.28,0,0,0,.23.3.25.25,0,0,0,.12,0l-.06,0,.38.74a.92.92,0,0,0-.3.35l-.75-.27h0a.28.28,0,0,0-.27-.27.27.27,0,1,0,0,.54.28.28,0,0,0,.19-.09l.77.27a1,1,0,0,0,0,.17.84.84,0,0,0,.11.41L63,82,62.88,82a.27.27,0,0,0-.29.25.27.27,0,1,0,.53.05.27.27,0,0,0,0-.09l.64-.43a1.14,1.14,0,0,0,.25.18l-.21.7a.27.27,0,0,0-.25.27.27.27,0,0,0,.54,0,.28.28,0,0,0-.1-.21l.21-.7a.48.48,0,0,0,.18,0,.88.88,0,0,0,.28-.06l.36.72a.21.21,0,0,0,0,.13.26.26,0,0,0,.23.3.27.27,0,0,0,.3-.23.26.26,0,0,0-.23-.3h-.08l-.35-.7a1,1,0,0,0,.28-.32l.77.28a.27.27,0,0,0,.27.23.27.27,0,0,0,0-.54Z" transform="translate(-15.93 -3.87)"/><g class="cls-8"><path class="cls-9" d="M57.3,99.52s-1-2.27.68-3.19,3,.92,3,.92,1.56-1.91,3.19-.28c1.11,1.11,0,2.71,0,2.71s2.59,1,.91,3.26a1.91,1.91,0,0,1-2.82.32,1.83,1.83,0,0,1-1.64,2.39c-2.22.32-2-2.35-2-2.35s-2.72,1-3-1.55A1.8,1.8,0,0,1,57.3,99.52Z" transform="translate(-15.93 -3.87)"/></g><path class="cls-7" d="M62.25,101a.27.27,0,0,0-.22.11l-.75-.26a.69.69,0,0,0,0-.2.74.74,0,0,0-.09-.36l.64-.44a.3.3,0,0,0,.15,0,.27.27,0,1,0-.27-.27s0,0,0,.06l-.63.43a1,1,0,0,0-.36-.26l.24-.8h0a.27.27,0,1,0-.27-.27.27.27,0,0,0,.08.19l-.25.84h-.1a.87.87,0,0,0-.28.05l-.38-.74,0,0a.32.32,0,0,0,.1-.18.27.27,0,1,0-.3.23h.11l0,0L60,100a.74.74,0,0,0-.29.34L59,100h0a.27.27,0,1,0-.27.27.28.28,0,0,0,.2-.08l.76.27a1,1,0,0,0,.09.57l-.64.44a.26.26,0,0,0-.12,0,.27.27,0,1,0,.24.3.28.28,0,0,0,0-.09l.65-.44a.79.79,0,0,0,.25.19l-.21.7a.27.27,0,0,0-.25.27.27.27,0,1,0,.54,0,.27.27,0,0,0-.1-.21l.2-.7.18,0a.82.82,0,0,0,.28,0l.37.72a.26.26,0,0,0-.06.13.27.27,0,0,0,.23.3.27.27,0,1,0,.07-.53.11.11,0,0,0-.08,0l-.35-.71a.77.77,0,0,0,.28-.31l.77.27a.27.27,0,1,0,.27-.3Z" transform="translate(-15.93 -3.87)"/><g class="cls-8"><path class="cls-9" d="M70.45,105.43s-1-2.27.68-3.18,3,.91,3,.91,1.56-1.9,3.18-.27c1.12,1.11,0,2.7,0,2.7s2.6,1,.92,3.27a1.93,1.93,0,0,1-2.83.32,1.81,1.81,0,0,1-1.63,2.38c-2.23.32-2-2.34-2-2.34s-2.72,1-3-1.56A1.8,1.8,0,0,1,70.45,105.43Z" transform="translate(-15.93 -3.87)"/></g><path class="cls-7" d="M75.4,106.93a.27.27,0,0,0-.22.11l-.75-.27a1.23,1.23,0,0,0,0-.2.86.86,0,0,0-.08-.36l.64-.43a.26.26,0,0,0,.15,0,.27.27,0,1,0-.27-.26.13.13,0,0,0,0,.06l-.64.43a.75.75,0,0,0-.35-.26l.23-.81h0a.27.27,0,1,0-.27-.27.29.29,0,0,0,.07.18l-.24.85h-.1a.93.93,0,0,0-.29.05L73,105l0,0a.25.25,0,0,0,.11-.18.27.27,0,0,0-.23-.3.27.27,0,0,0-.07.53.14.14,0,0,0,.11,0l-.06,0,.38.75a.83.83,0,0,0-.3.34l-.75-.27h0a.27.27,0,1,0-.27.27.22.22,0,0,0,.19-.09l.77.27a1.11,1.11,0,0,0,0,.17.81.81,0,0,0,.11.41l-.64.44a.21.21,0,0,0-.13,0,.27.27,0,0,0-.05.53.27.27,0,0,0,.3-.24.19.19,0,0,0,0-.08l.65-.44a.84.84,0,0,0,.24.18l-.2.71a.27.27,0,1,0,.18.06l.21-.7.18,0a.87.87,0,0,0,.28,0l.36.72a.33.33,0,0,0-.05.12.27.27,0,1,0,.3-.23h-.08l-.35-.7a.92.92,0,0,0,.28-.31l.77.27a.28.28,0,0,0,.27.24.28.28,0,0,0,.27-.27A.27.27,0,0,0,75.4,106.93Z" transform="translate(-15.93 -3.87)"/><g class="cls-8"><path class="cls-9" d="M99.78,112.63s-1-2.27.67-3.19,3,.92,3,.92,1.56-1.91,3.18-.28c1.12,1.11,0,2.71,0,2.71s2.59,1,.92,3.26a1.92,1.92,0,0,1-2.83.32,1.82,1.82,0,0,1-1.63,2.39c-2.23.32-2-2.35-2-2.35s-2.72,1-3-1.55A1.81,1.81,0,0,1,99.78,112.63Z" transform="translate(-15.93 -3.87)"/></g><path class="cls-7" d="M104.73,114.12a.27.27,0,0,0-.22.11l-.75-.26a1.36,1.36,0,0,0,0-.2.86.86,0,0,0-.08-.36l.64-.44a.25.25,0,0,0,.15,0,.27.27,0,1,0-.27-.27.13.13,0,0,0,0,.06l-.64.43a.92.92,0,0,0-.35-.26l.23-.8h0a.27.27,0,0,0,0-.54.27.27,0,0,0-.27.27.32.32,0,0,0,.07.19l-.25.84H103a.93.93,0,0,0-.29,0l-.37-.74,0,0a.29.29,0,0,0,.11-.18.27.27,0,1,0-.31.23h.12l-.06,0,.38.74a.83.83,0,0,0-.3.34l-.75-.27h0a.28.28,0,0,0-.27-.27.27.27,0,0,0,0,.54.27.27,0,0,0,.19-.08l.77.27a.88.88,0,0,0,0,.17.8.8,0,0,0,.11.4l-.64.44a.29.29,0,0,0-.13,0,.27.27,0,1,0,.24.3.27.27,0,0,0,0-.09l.64-.44a.72.72,0,0,0,.25.18l-.21.71a.27.27,0,0,0-.25.27.27.27,0,1,0,.54,0,.27.27,0,0,0-.1-.21l.21-.7.18,0a.87.87,0,0,0,.28,0l.36.72a.19.19,0,0,0,0,.13.27.27,0,0,0,.53.07.26.26,0,0,0-.23-.3.11.11,0,0,0-.08,0l-.35-.71a.84.84,0,0,0,.28-.31l.77.27a.27.27,0,0,0,.27.24.27.27,0,0,0,0-.54Z" transform="translate(-15.93 -3.87)"/><g class="cls-8"><path class="cls-9" d="M119.28,104.66s-1-2.26.68-3.18,3,.92,3,.92,1.56-1.91,3.19-.28c1.11,1.11,0,2.7,0,2.7s2.59,1.05.91,3.27a1.91,1.91,0,0,1-2.82.32,1.82,1.82,0,0,1-1.64,2.38c-2.23.32-2-2.34-2-2.34s-2.72,1-3-1.56A1.8,1.8,0,0,1,119.28,104.66Z" transform="translate(-15.93 -3.87)"/></g><path class="cls-7" d="M124.23,106.16a.27.27,0,0,0-.22.11l-.75-.27a.64.64,0,0,0,0-.2.87.87,0,0,0-.09-.36l.64-.43a.3.3,0,0,0,.15,0,.28.28,0,0,0,.27-.27.27.27,0,1,0-.54,0s0,0,0,.06l-.63.43a.83.83,0,0,0-.36-.26l.24-.8h0a.27.27,0,1,0-.2-.09l-.24.85h-.1a.82.82,0,0,0-.28,0l-.38-.74h0a.25.25,0,0,0,.11-.18.27.27,0,0,0-.23-.3.26.26,0,0,0-.3.23.28.28,0,0,0,.23.31.2.2,0,0,0,.11,0l0,0,.37.75a.74.74,0,0,0-.29.34l-.76-.27h0a.27.27,0,1,0-.27.27.25.25,0,0,0,.2-.09l.76.27a1.11,1.11,0,0,0,0,.17.93.93,0,0,0,.11.41l-.64.44a.21.21,0,0,0-.13-.05.27.27,0,0,0-.29.24.27.27,0,1,0,.54,0,.22.22,0,0,0,0-.08l.65-.44a.76.76,0,0,0,.25.18l-.21.71a.27.27,0,0,0-.25.27.28.28,0,0,0,.27.27.28.28,0,0,0,.27-.27.25.25,0,0,0-.11-.21l.21-.7.18,0a.87.87,0,0,0,.28,0l.36.72a.33.33,0,0,0,0,.12.27.27,0,1,0,.3-.23h-.08l-.35-.71a.92.92,0,0,0,.28-.31l.77.27a.28.28,0,0,0,.27.24.27.27,0,1,0,0-.54Z" transform="translate(-15.93 -3.87)"/><g class="cls-8"><path class="cls-9" d="M122.53,121.06s-1-2.27.68-3.18,3,.91,3,.91,1.56-1.9,3.19-.27c1.11,1.11,0,2.7,0,2.7s2.59,1,.91,3.27a1.91,1.91,0,0,1-2.82.32,1.82,1.82,0,0,1-1.63,2.38c-2.23.32-2-2.35-2-2.35s-2.73,1-3-1.55A1.8,1.8,0,0,1,122.53,121.06Z" transform="translate(-15.93 -3.87)"/></g><path class="cls-7" d="M127.48,122.56a.27.27,0,0,0-.22.11l-.75-.27a.64.64,0,0,0,0-.2.74.74,0,0,0-.09-.36l.64-.43a.28.28,0,0,0,.15,0,.27.27,0,1,0,0-.53.26.26,0,0,0-.26.26v.07l-.63.43a.83.83,0,0,0-.36-.26l.24-.81h0a.27.27,0,1,0-.27-.27.25.25,0,0,0,.08.18l-.25.85h-.1a.87.87,0,0,0-.28,0l-.38-.75,0,0a.27.27,0,0,0-.13-.48.27.27,0,0,0-.07.53.17.17,0,0,0,.12,0l-.06,0,.37.75a.74.74,0,0,0-.29.34l-.76-.27h0a.27.27,0,1,0-.27.27.25.25,0,0,0,.2-.09l.76.27a1,1,0,0,0,0,.17.81.81,0,0,0,.11.41l-.65.43a.25.25,0,0,0-.12,0,.27.27,0,1,0,0,.53.26.26,0,0,0,.29-.24.19.19,0,0,0,0-.08l.65-.44a.76.76,0,0,0,.25.18l-.21.71a.26.26,0,0,0-.25.26.27.27,0,0,0,.54,0,.26.26,0,0,0-.1-.2l.2-.7.18,0A.93.93,0,0,0,126,123l.36.71a.31.31,0,0,0-.06.13.27.27,0,1,0,.31-.23h-.08l-.36-.7a.83.83,0,0,0,.28-.31l.78.27a.25.25,0,0,0,.26.23.27.27,0,1,0,0-.53Z" transform="translate(-15.93 -3.87)"/><g class="cls-8"><path class="cls-9" d="M78.72,87s-.92-2.1.63-2.95,2.81.85,2.81.85,1.44-1.77,3-.26c1,1,0,2.51,0,2.51s2.41,1,.85,3a1.78,1.78,0,0,1-2.62.3,1.69,1.69,0,0,1-1.52,2.21C79.75,93,80,90.47,80,90.47s-2.53,1-2.78-1.44A1.67,1.67,0,0,1,78.72,87Z" transform="translate(-15.93 -3.87)"/></g><path class="cls-7" d="M83.31,88.35a.26.26,0,0,0-.2.1l-.7-.24a.58.58,0,0,0,0-.19.73.73,0,0,0-.08-.33l.59-.4a.33.33,0,0,0,.14,0,.25.25,0,0,0,0-.5.25.25,0,0,0-.25.25s0,0,0,.06l-.59.4a.73.73,0,0,0-.33-.24l.22-.75h0a.25.25,0,1,0-.25-.25.24.24,0,0,0,.07.17l-.23.79h-.09a.75.75,0,0,0-.26,0l-.35-.7,0,0a.27.27,0,0,0,.1-.17.26.26,0,0,0-.22-.28.25.25,0,0,0-.28.22.25.25,0,0,0,.21.28h.11l0,0,.34.69a.74.74,0,0,0-.27.31l-.7-.24h0a.25.25,0,0,0-.5,0,.25.25,0,0,0,.25.25.23.23,0,0,0,.18-.08l.71.26a.76.76,0,0,0,0,.15.8.8,0,0,0,.1.38l-.6.4a.21.21,0,0,0-.11,0A.26.26,0,0,0,80,89a.26.26,0,0,0,.23.27.24.24,0,0,0,.26-.31l.6-.4a1.24,1.24,0,0,0,.23.17l-.19.65a.25.25,0,0,0-.23.25.25.25,0,1,0,.41-.19l.19-.65.16,0a.81.81,0,0,0,.27,0l.33.67a.22.22,0,0,0-.05.11.26.26,0,0,0,.21.29.27.27,0,0,0,.29-.22.26.26,0,0,0-.22-.28h-.07l-.33-.65a.73.73,0,0,0,.26-.29l.72.25a.25.25,0,1,0,.24-.28Z" transform="translate(-15.93 -3.87)"/><g class="cls-8"><path class="cls-9" d="M73.82,73s-.73-1.65.49-2.32,2.2.67,2.2.67a1.53,1.53,0,0,1,2.31-.2c.81.81,0,2,0,2a1.46,1.46,0,0,1,.66,2.38,1.4,1.4,0,0,1-2,.23,1.31,1.31,0,0,1-1.18,1.73c-1.62.23-1.45-1.7-1.45-1.7s-2,.74-2.18-1.13A1.32,1.32,0,0,1,73.82,73Z" transform="translate(-15.93 -3.87)"/></g><path class="cls-7" d="M77.41,74.06a.21.21,0,0,0-.16.08L76.71,74a.68.68,0,0,0,0-.14.76.76,0,0,0-.06-.27l.46-.31a.2.2,0,0,0,.11,0,.2.2,0,1,0-.2-.19s0,0,0,0l-.46.31a.68.68,0,0,0-.26-.18l.17-.59h0a.19.19,0,0,0,.2-.19.2.2,0,0,0-.2-.2.19.19,0,0,0-.19.2.19.19,0,0,0,.05.13l-.18.62h-.07a.52.52,0,0,0-.21,0l-.27-.54h0a.18.18,0,0,0,.08-.13.19.19,0,0,0-.17-.22.2.2,0,0,0-.22.17.21.21,0,0,0,.17.22h.09l0,0,.28.54a.59.59,0,0,0-.22.25l-.55-.2h0a.2.2,0,0,0-.19-.19.2.2,0,1,0,0,.39.25.25,0,0,0,.14-.06l.56.19a.51.51,0,0,0,0,.13.6.6,0,0,0,.08.29l-.46.32-.1,0a.2.2,0,0,0-.21.18.19.19,0,0,0,.18.21.2.2,0,0,0,.21-.17v-.06l.47-.32a.7.7,0,0,0,.17.13l-.15.51a.2.2,0,0,0-.18.2.19.19,0,0,0,.2.19.18.18,0,0,0,.19-.19.2.2,0,0,0-.07-.15L76,74.4h.13a.52.52,0,0,0,.21,0l.26.53a.13.13,0,0,0,0,.09.19.19,0,0,0,.17.22.2.2,0,1,0,0-.39h-.06l-.26-.51a.52.52,0,0,0,.21-.23l.56.2a.19.19,0,0,0,.19.17.19.19,0,0,0,.2-.19A.2.2,0,0,0,77.41,74.06Z" transform="translate(-15.93 -3.87)"/><g class="cls-8"><path class="cls-9" d="M76.28,120.35s-1-2.27.67-3.18,3,.91,3,.91,1.55-1.9,3.18-.27c1.12,1.11,0,2.7,0,2.7s2.59,1,.92,3.27a1.92,1.92,0,0,1-2.83.31,1.82,1.82,0,0,1-1.63,2.39c-2.23.32-2-2.35-2-2.35s-2.72,1-3-1.55A1.8,1.8,0,0,1,76.28,120.35Z" transform="translate(-15.93 -3.87)"/></g><path class="cls-10" d="M81.22,121.85A.25.25,0,0,0,81,122l-.76-.27a.64.64,0,0,0,0-.2.86.86,0,0,0-.08-.36l.64-.43a.24.24,0,0,0,.15,0,.27.27,0,1,0-.27-.27.15.15,0,0,0,0,.07l-.64.43a.73.73,0,0,0-.36-.26l.24-.81h0a.27.27,0,0,0,0-.54.28.28,0,0,0-.27.27.25.25,0,0,0,.08.18l-.25.85h-.09a.88.88,0,0,0-.29,0l-.37-.75,0,0a.25.25,0,0,0,.11-.18.28.28,0,0,0-.23-.3.27.27,0,0,0-.31.23.26.26,0,0,0,.23.3.17.17,0,0,0,.12,0l-.06,0,.37.75a.88.88,0,0,0-.29.34l-.76-.27h0a.27.27,0,1,0-.27.27.25.25,0,0,0,.2-.09l.77.27a1,1,0,0,0,0,.17.81.81,0,0,0,.11.41l-.64.43a.28.28,0,0,0-.13,0,.27.27,0,1,0,.24.29.21.21,0,0,0,0-.08l.64-.44a.88.88,0,0,0,.25.18l-.21.71a.26.26,0,0,0-.25.26.27.27,0,1,0,.54,0,.26.26,0,0,0-.1-.2l.21-.7.18,0a.87.87,0,0,0,.28,0l.36.71a.21.21,0,0,0,0,.13.27.27,0,0,0,.23.31.28.28,0,0,0,.3-.23.27.27,0,0,0-.23-.31h-.08l-.36-.7a.83.83,0,0,0,.28-.31l.78.27a.27.27,0,1,0,.26-.3Z" transform="translate(-15.93 -3.87)"/><g class="cls-8"><path class="cls-9" d="M85.67,101.84s-1-2.27.68-3.19,3,.92,3,.92,1.56-1.91,3.19-.28c1.11,1.11,0,2.71,0,2.71s2.59,1,.91,3.26a1.91,1.91,0,0,1-2.82.32A1.83,1.83,0,0,1,89,108c-2.22.32-2-2.35-2-2.35s-2.72,1-3-1.55A1.8,1.8,0,0,1,85.67,101.84Z" transform="translate(-15.93 -3.87)"/></g><path class="cls-7" d="M90.62,103.33a.27.27,0,0,0-.22.11l-.75-.26a.69.69,0,0,0,0-.2.74.74,0,0,0-.09-.36l.64-.44a.3.3,0,0,0,.15,0,.27.27,0,1,0-.27-.27s0,0,0,.06l-.63.43a.9.9,0,0,0-.36-.25l.24-.81h0a.27.27,0,1,0-.27-.27.27.27,0,0,0,.08.19l-.25.84h-.1a.87.87,0,0,0-.28,0l-.38-.74,0,0a.29.29,0,0,0,.1-.18.27.27,0,1,0-.53-.07.27.27,0,0,0,.23.3h.11l0,0,.37.74a.74.74,0,0,0-.29.34l-.76-.26h0a.27.27,0,0,0-.54,0,.27.27,0,0,0,.27.27.28.28,0,0,0,.2-.08l.76.27a.91.91,0,0,0,0,.17.77.77,0,0,0,.11.4l-.65.44a.26.26,0,0,0-.12,0,.27.27,0,1,0,0,.54.26.26,0,0,0,.28-.33l.65-.44a.79.79,0,0,0,.25.19l-.21.7a.27.27,0,0,0-.25.27.27.27,0,0,0,.54,0,.27.27,0,0,0-.1-.21l.2-.7a.55.55,0,0,0,.18,0,.82.82,0,0,0,.28,0l.37.72a.31.31,0,0,0-.06.13.27.27,0,0,0,.23.3.27.27,0,1,0,.07-.53h-.08l-.35-.71a.77.77,0,0,0,.28-.31l.77.27a.27.27,0,1,0,.27-.3Z" transform="translate(-15.93 -3.87)"/><g class="cls-8"><path class="cls-9" d="M93,84.51s-1-2.27.68-3.19,3,.92,3,.92,1.56-1.91,3.19-.28c1.11,1.12,0,2.71,0,2.71s2.59,1,.91,3.26a1.93,1.93,0,0,1-2.83.32,1.82,1.82,0,0,1-1.63,2.39c-2.23.32-2-2.35-2-2.35s-2.72,1-3-1.55A1.8,1.8,0,0,1,93,84.51Z" transform="translate(-15.93 -3.87)"/></g><path class="cls-7" d="M97.93,86a.3.3,0,0,0-.22.11L97,85.85a1.38,1.38,0,0,0,0-.2.87.87,0,0,0-.09-.36l.64-.44a.27.27,0,1,0-.12-.22s0,0,0,.06l-.63.43a.9.9,0,0,0-.36-.25l.23-.81h0a.27.27,0,1,0-.27-.27.32.32,0,0,0,.07.19l-.24.84h-.1a.72.72,0,0,0-.29.06l-.37-.75,0,0a.27.27,0,1,0-.42-.25.27.27,0,0,0,.23.3.2.2,0,0,0,.11,0l-.06,0,.38.74a1,1,0,0,0-.3.34L94.64,85h0a.27.27,0,0,0-.54,0,.28.28,0,0,0,.27.27.29.29,0,0,0,.2-.09l.76.27a.77.77,0,0,0,.09.57l-.64.44-.13,0a.28.28,0,0,0-.29.25.27.27,0,0,0,.24.29.26.26,0,0,0,.29-.33l.65-.44a.88.88,0,0,0,.24.19l-.2.7a.27.27,0,0,0-.25.27.27.27,0,1,0,.53,0,.25.25,0,0,0-.1-.21l.21-.7a.55.55,0,0,0,.18,0,.87.87,0,0,0,.28,0l.36.72a.5.5,0,0,0-.05.13.27.27,0,1,0,.3-.23H97l-.35-.7a.87.87,0,0,0,.28-.32l.77.28a.27.27,0,1,0,.27-.31Z" transform="translate(-15.93 -3.87)"/><g class="cls-8"><path class="cls-9" d="M61.8,121.54s-1-2.27.67-3.18,3,.91,3,.91,1.56-1.9,3.18-.28c1.12,1.12,0,2.71,0,2.71s2.6,1,.92,3.26a1.93,1.93,0,0,1-2.83.32,1.82,1.82,0,0,1-1.63,2.39c-2.23.32-2-2.35-2-2.35s-2.72,1-3-1.55A1.8,1.8,0,0,1,61.8,121.54Z" transform="translate(-15.93 -3.87)"/></g><path class="cls-10" d="M66.75,123a.3.3,0,0,0-.22.11l-.75-.26a1.36,1.36,0,0,0,0-.2.86.86,0,0,0-.08-.36l.64-.43a.33.33,0,0,0,.15,0,.27.27,0,1,0-.27-.27.13.13,0,0,0,0,.06l-.64.43a.81.81,0,0,0-.35-.25l.23-.81h0a.27.27,0,1,0-.27-.27.29.29,0,0,0,.07.19l-.24.84H65a.72.72,0,0,0-.29.06l-.37-.75,0,0a.27.27,0,0,0-.12-.48.27.27,0,0,0-.31.23.28.28,0,0,0,.24.3.21.21,0,0,0,.11,0l-.06,0,.38.74a1,1,0,0,0-.3.34l-.75-.26h0a.27.27,0,1,0-.54,0,.28.28,0,0,0,.27.27.26.26,0,0,0,.19-.09l.77.27a.88.88,0,0,0,0,.17.84.84,0,0,0,.11.41l-.64.43-.13,0a.27.27,0,0,0,0,.54.26.26,0,0,0,.29-.33l.65-.44a.88.88,0,0,0,.24.19l-.2.7a.28.28,0,0,0-.26.27.28.28,0,0,0,.27.27.27.27,0,0,0,.27-.27.28.28,0,0,0-.1-.21l.21-.7a.55.55,0,0,0,.18,0,.87.87,0,0,0,.28-.05l.36.72a.21.21,0,0,0,0,.13.27.27,0,1,0,.3-.23.22.22,0,0,0-.08,0l-.35-.7a.87.87,0,0,0,.28-.32l.77.28a.27.27,0,1,0,.27-.31Z" transform="translate(-15.93 -3.87)"/><path class="cls-7" d="M52.87,77.29,48,90.67s-4.49,3.35-5.18,5c-.45,1.07-1.54,6.35-1.54,6.35s-4.27,13.5-4.87,17.28a15.25,15.25,0,0,0,3.77,12.38s11.75,1,14.93-2.25a20.32,20.32,0,0,0,4.42-7.11l.23-27.73Z" transform="translate(-15.93 -3.87)"/><g class="cls-8"><path class="cls-9" d="M50.27,93s-.8-1.81.54-2.55,2.42.74,2.42.74A1.69,1.69,0,0,1,55.78,91c.89.9,0,2.17,0,2.17a1.61,1.61,0,0,1,.74,2.61,1.54,1.54,0,0,1-2.27.26A1.45,1.45,0,0,1,53,97.94c-1.79.26-1.6-1.88-1.6-1.88s-2.18.82-2.4-1.24A1.45,1.45,0,0,1,50.27,93Z" transform="translate(-15.93 -3.87)"/></g><path class="cls-7" d="M54.23,94.23a.2.2,0,0,0-.17.09l-.61-.21a.5.5,0,0,0,0-.16.69.69,0,0,0-.07-.29l.51-.35a.28.28,0,0,0,.12,0,.22.22,0,0,0,0-.44.21.21,0,0,0-.21.22v.05l-.51.35a.58.58,0,0,0-.28-.21l.19-.65h0a.21.21,0,0,0,.21-.21.21.21,0,0,0-.21-.22.22.22,0,0,0-.22.22.25.25,0,0,0,.06.15l-.2.67h-.07a.59.59,0,0,0-.23,0l-.3-.6,0,0a.22.22,0,0,0,.08-.15.21.21,0,1,0-.42-.06.22.22,0,0,0,.18.25h.09l0,0,.3.6a.69.69,0,0,0-.24.27l-.6-.21h0a.22.22,0,0,0-.44,0,.21.21,0,0,0,.22.21.2.2,0,0,0,.16-.07l.61.22a.61.61,0,0,0,0,.14.72.72,0,0,0,.08.32l-.51.35-.1,0a.23.23,0,0,0-.24.2.21.21,0,0,0,.2.23.21.21,0,0,0,.23-.19.16.16,0,0,0,0-.07l.52-.35a.52.52,0,0,0,.19.14l-.16.57a.22.22,0,0,0-.2.21.21.21,0,0,0,.21.22.22.22,0,0,0,.22-.22.21.21,0,0,0-.08-.16l.16-.56h.15a.54.54,0,0,0,.22,0l.29.58a.18.18,0,0,0,0,.1.21.21,0,0,0,.18.24.21.21,0,1,0,.06-.42h-.06l-.29-.57a.61.61,0,0,0,.23-.25l.62.22a.21.21,0,0,0,.21.19.22.22,0,0,0,.22-.22A.21.21,0,0,0,54.23,94.23Z" transform="translate(-15.93 -3.87)"/><path class="cls-2" d="M59.79,93.73s-1.36-3-2.95-6.81S54,80.06,54.05,80s1.36,3,3,6.82S59.84,93.72,59.79,93.73Z" transform="translate(-15.93 -3.87)"/><path class="cls-2" d="M69.63,99s-.46-4.82-.93-10.77-.81-10.78-.76-10.78.46,4.82.93,10.77S69.68,99,69.63,99Z" transform="translate(-15.93 -3.87)"/><path class="cls-2" d="M51.24,107.88l.15.09.4.27,1.48,1c1.24.87,2.94,2.08,4.82,3.43l1.36,1a3.4,3.4,0,0,1,1.07,1.17,4,4,0,0,1,.3,2.64,9.21,9.21,0,0,1-.55,1.72l-.19.45c0,.1-.07.15-.08.15s0-.06,0-.17l.16-.46a9.77,9.77,0,0,0,.49-1.71,4,4,0,0,0-.31-2.54,3.35,3.35,0,0,0-1-1.12l-1.36-1c-1.88-1.35-3.57-2.58-4.79-3.47l-1.44-1.07-.39-.29C51.28,107.93,51.24,107.89,51.24,107.88Z" transform="translate(-15.93 -3.87)"/><path class="cls-2" d="M59.79,93.73s0,.07,0,.21l0,.57c0,.51,0,1.23,0,2.13,0,1.8,0,4.28-.06,7s-.17,5.22-.3,7c-.07.89-.14,1.62-.21,2.12l-.08.57a.69.69,0,0,1,0,.2s0-.07,0-.21l0-.57c0-.5.1-1.23.15-2.12.1-1.79.19-4.27.25-7s.09-5.22.11-7c0-.88,0-1.6,0-2.12l0-.58A1.87,1.87,0,0,1,59.79,93.73Z" transform="translate(-15.93 -3.87)"/><g class="cls-8"><path d="M94.23,130.71a19.58,19.58,0,0,1,1.85-5.22,7.17,7.17,0,0,1,3.38-3.43,9,9,0,0,1,4-.59c2.55.09,3.87-.52,6.37,0,.41.08,1.34,1.24,1.73,1.39a4.2,4.2,0,0,1,.67,2,9.92,9.92,0,0,1-.27,3.32,3.69,3.69,0,0,1-2.41,2.29c-1.66.37-3.33-.83-5-.6a13.19,13.19,0,0,0-2.28.74Z" transform="translate(-15.93 -3.87)"/></g><g class="cls-8"><path d="M44.32,124.84c.14-.15,13.54,2.35,19.81,5.11-2.23.48-4.53,0-6.79-.25a33.09,33.09,0,0,0-8.78.19c-2.64.42-5.28,1.16-7.93.79A22.3,22.3,0,0,1,44.32,124.84Z" transform="translate(-15.93 -3.87)"/></g><path class="cls-2" d="M40.19,131.65a1,1,0,0,1,.08-.25c.06-.16.14-.41.27-.71a20.36,20.36,0,0,1,1.27-2.5,28.41,28.41,0,0,1,2.41-3.38c1-1.21,2.15-2.48,3.39-3.78a16.68,16.68,0,0,1,4-3.08,13.45,13.45,0,0,1,3.91-1.38,10.65,10.65,0,0,1,2.8-.15,6.41,6.41,0,0,1,.75.09l.26,0h-.26c-.18,0-.43-.06-.76-.06a10.88,10.88,0,0,0-2.77.2,13.43,13.43,0,0,0-3.85,1.4,16.66,16.66,0,0,0-4,3.06c-1.24,1.3-2.4,2.56-3.39,3.76a30.28,30.28,0,0,0-2.43,3.35,21.78,21.78,0,0,0-1.31,2.46c-.14.29-.23.53-.3.69Z" transform="translate(-15.93 -3.87)"/><g class="cls-8"><path d="M54.47,107.36a4.62,4.62,0,0,0-2.83-1.52,5.44,5.44,0,0,0-2.84,1c-3.5,2-7.57,3.8-8.95,7.54a67.39,67.39,0,0,1,7.11-4.6c1-.56,2.26-1.14,3.27-1.67s2.85,1.07,4.1,2,2.41,1.68,3.71,2.7A15.32,15.32,0,0,0,54.47,107.36Z" transform="translate(-15.93 -3.87)"/></g><g class="cls-8"><path d="M68.49,85.2a36.43,36.43,0,0,1,1.79,18.53q-1.09-9.06-1.65-18.19" transform="translate(-15.93 -3.87)"/></g><g class="cls-8"><path d="M72.35,121.43c5.32-10.59,10.09-22.15,15.73-32.56-3.71,11.13-9.53,22.46-15.73,32.56" transform="translate(-15.93 -3.87)"/></g><g class="cls-8"><path d="M111.43,118.74a27.62,27.62,0,0,0-1.09-18.58,74.54,74.54,0,0,1-1.81,19.64Z" transform="translate(-15.93 -3.87)"/></g><path class="cls-2" d="M110.21,98.05a.74.74,0,0,1,0,.22l.07.63c.06.55.13,1.35.18,2.34s.09,2.17.09,3.48-.06,2.76-.18,4.26-.29,3-.49,4.24-.41,2.46-.62,3.43-.4,1.75-.55,2.28l-.17.62a.8.8,0,0,1-.07.21.89.89,0,0,1,0-.22l.14-.62c.12-.54.29-1.33.49-2.3s.4-2.13.59-3.42.35-2.72.47-4.23.17-2.94.19-4.25,0-2.48-.05-3.47-.08-1.79-.12-2.34l-.05-.64Z" transform="translate(-15.93 -3.87)"/><path class="cls-2" d="M110.29,130.52a10.89,10.89,0,0,0,.92-1.17,6.08,6.08,0,0,0,1-3.38,9.27,9.27,0,0,0-.18-2,4,4,0,0,0-.64-1.45,6.58,6.58,0,0,0-1-1.07,1.86,1.86,0,0,1,.35.22,4,4,0,0,1,.78.78,4,4,0,0,1,.69,1.49,8.89,8.89,0,0,1,.2,2,5.92,5.92,0,0,1-1,3.45,4.47,4.47,0,0,1-.71.84A1.76,1.76,0,0,1,110.29,130.52Z" transform="translate(-15.93 -3.87)"/><path class="cls-2" d="M123.54,96.28s-1.34,4.39-3.1,9.77-3.21,9.73-3.26,9.71,1.34-4.38,3.1-9.76S123.49,96.26,123.54,96.28Z" transform="translate(-15.93 -3.87)"/><g class="cls-8"><path d="M118.32,115.91c3.64-2.59,7.61-5.23,11.89-6.5,1.22-.36,2.75-.52,3.59.45-2.74.56-5.63,1-8.1,2.37s-4.83,2.32-7.38,3.68" transform="translate(-15.93 -3.87)"/></g><path class="cls-3" d="M90.22,129.72l2.85-7.14L97.81,118s1-.68,1.58-.52,7.17,1.32,7.17,1.32l3.76,2.7a4.57,4.57,0,0,1,1.61,5.44,2.46,2.46,0,0,1-1.05,1.29,2.58,2.58,0,0,1-3.11,0l-2-.94-2.34.25s-3.78,4.44-5.15,4.38c0,0-1.26-.47-1.16-1s4.19-5.16,4.19-5.16l1.61-1.37-2.84,1.05s-4.22,5.55-4.85,5.86-2.27-.38-2.27-.38-.9.91-1.79.38-.69-.82-.69-.82Z" transform="translate(-15.93 -3.87)"/><path class="cls-3" d="M90.14,123.42a1,1,0,0,0-.1,1.21,2.83,2.83,0,0,0,1,.88,1.81,1.81,0,0,0,1.45.42,1.78,1.78,0,0,0,.64-.45,18.58,18.58,0,0,0,4-4.9c-2.15,1.29-4.41,2.62-6.91,2.78" transform="translate(-15.93 -3.87)"/><path class="cls-4" d="M102.4,120.77s-.18.1-.51.27l-1.4.66-2.09,1a4.39,4.39,0,0,0-1.11.74,4.8,4.8,0,0,0-.82,1.17c-1,1.75-1.87,3.33-2.52,4.47l-.78,1.34a3.87,3.87,0,0,1-.3.49,4.19,4.19,0,0,1,.24-.52l.74-1.37c.62-1.15,1.49-2.74,2.47-4.5a4.87,4.87,0,0,1,.86-1.2,4.33,4.33,0,0,1,1.15-.76c.79-.37,1.51-.68,2.11-1l1.42-.61A3,3,0,0,1,102.4,120.77Z" transform="translate(-15.93 -3.87)"/><path class="cls-4" d="M90.35,130.4a4.92,4.92,0,0,1,.29-.5,13.52,13.52,0,0,0,.72-1.41c.28-.6.57-1.35.9-2.17a16.2,16.2,0,0,1,1.26-2.6,8.83,8.83,0,0,1,1.94-2.15,17.11,17.11,0,0,1,2-1.31c.59-.33,1.07-.58,1.4-.74l.39-.19.14-.06a2.65,2.65,0,0,1-.49.31c-.33.18-.8.44-1.38.79a15.33,15.33,0,0,0-1.92,1.33,8.5,8.5,0,0,0-1.89,2.12,16.88,16.88,0,0,0-1.27,2.56c-.34.82-.64,1.56-.93,2.16a12.38,12.38,0,0,1-.77,1.39l-.25.36Z" transform="translate(-15.93 -3.87)"/><path class="cls-4" d="M93,122.51s-.35.87-.76,1.95-.69,2-.74,2a9,9,0,0,1,.58-2A8.49,8.49,0,0,1,93,122.51Z" transform="translate(-15.93 -3.87)"/><path class="cls-2" d="M88.42,140.36a1.81,1.81,0,0,1-.85.58,1.76,1.76,0,0,1-1,.17c0-.05.44-.12,1-.33S88.39,140.32,88.42,140.36Z" transform="translate(-15.93 -3.87)"/><polygon class="cls-6" points="36.41 129.68 26 145.97 109.64 145.97 101.53 129.98 36.41 129.68"/><path class="cls-2" d="M52.34,133.56h4.85l13.52,0,46.75.18h.05l0,0,8.12,16,.06.13H115.62l-73.69,0h-.1l.05-.08,7.71-12,2-3.17.53-.81.18-.27-.17.28-.52.83-2,3.19c-1.77,2.79-4.37,6.86-7.65,12l0-.08,73.69,0h10l-.08.12-8.12-16,.08,0-46.72-.24-13.53-.09-3.62,0-.93,0Z" transform="translate(-15.93 -3.87)"/><path class="cls-2" d="M104,135.87a6.65,6.65,0,0,1-.84.44c-1,.36-2,.64-2.88,1.05a27.92,27.92,0,0,0-3.4,1.83c-1.12.71-2.1,1.48-3.11,2.23a4.26,4.26,0,0,0-.59.7c.8-.15,1.51-.25,2.16-.4,1.1-.26,2.19-.54,3.25-.84a3.87,3.87,0,0,1,2.72.28c.64.37,1.26.74,1,1.3,0,.08.07.17.15.31-.3-.06-.53-.08-.71-.14a4.65,4.65,0,0,0-2.1-.12c-1.83.29-3.65.61-5.46.94-.21,0-.46.19-.48.3s-.26.23-.55.22a6,6,0,0,1-2.65-.55c-.62-.34-1.25-.67-1.81-1-.4-.26-.54-.76.09-1,1.53-.62,2.15-1.57,3.16-2.37a7.42,7.42,0,0,1,3.68-1.77A14.57,14.57,0,0,1,98,137a7.68,7.68,0,0,0,2.49-.42c.92-.28,1.87-.54,2.82-.8a2.61,2.61,0,0,1,.56,0Z" transform="translate(-15.93 -3.87)"/><path class="cls-2" d="M85,140.48c-.42.24-.82.49-1.27.72a76.83,76.83,0,0,0-8.56,4.72c-.1.08-.21.15-.3.23-.59.45-1.1.91-.22,1.45a6.4,6.4,0,0,1-2.33-.53,8,8,0,0,1-1.1-.92c-.47-.53,0-1,.57-1.42.81-.59,1.75-1.14,2.65-1.69a3,3,0,0,1,.63-.23s0-.07-.12-.1a2,2,0,0,1-1.37-1.22.88.88,0,0,1,0-.6,6.54,6.54,0,0,0,.25-.94c.06-.95,0-1.89.08-2.84,0-.51.53-.89,1.21-1a2.23,2.23,0,0,1,1.63.56,5.37,5.37,0,0,0,.5.81c.14.22.28.4,0,.65a.85.85,0,0,0-.21.71c0,1.06,0,2.12-.07,3.18,0,0,0,0,.08.14l2.11-.34c.19,0,.42,0,.6,0a12.42,12.42,0,0,0,1.59-.32c1-.32,2-.68,3-1a3.25,3.25,0,0,1,.47-.1Z" transform="translate(-15.93 -3.87)"/><path class="cls-2" d="M102.94,145.87a14.35,14.35,0,0,0-4.74.33c-1.43.21-2.84.46-4.27.65a5.31,5.31,0,0,1-1.49,0,4.17,4.17,0,0,1-2.22-.82c-.21-.21-.28-.44.06-.62a1.9,1.9,0,0,1,1.15-.09,6,6,0,0,0,1.41,0c1.64-.22,3.27-.46,4.9-.72a4.4,4.4,0,0,0,1-.27,2.94,2.94,0,0,1,2.07-.06c1,.33,1.73.75,1.84,1.39C102.67,145.68,102.78,145.74,102.94,145.87Z" transform="translate(-15.93 -3.87)"/><path class="cls-9" d="M86.93,141.78s1.17,3.39,1.33,3.66,1,2,2.61,1.75,2.84-.46,2.84-.46-2.53,0-3.07-.54a12.44,12.44,0,0,1-1.39-3c-.29-.69-.69-2-.69-2S87.05,141.37,86.93,141.78Z" transform="translate(-15.93 -3.87)"/><path class="cls-2" d="M86.93,141.78a.28.28,0,0,1,.06-.11.69.69,0,0,1,.29-.2,4.35,4.35,0,0,1,1.27-.34h0v0c.14.44.31,1,.52,1.52.1.28.24.57.36.89l.37,1c.13.33.28.68.45,1a4.9,4.9,0,0,0,.31.48,1,1,0,0,0,.47.29,5.89,5.89,0,0,0,1.21.23c.42,0,.86.07,1.3.08h.12v.17l-2,.32c-.33.05-.64.12-1,.15a1.91,1.91,0,0,1-1-.15A3.13,3.13,0,0,1,88.49,146a3.41,3.41,0,0,1-.38-.7c-.09-.23-.17-.46-.25-.67-.3-.87-.54-1.57-.7-2.06L87,142l-.06-.2A.6.6,0,0,1,87,142l.21.56.74,2,.26.67a3.47,3.47,0,0,0,.38.67A3.09,3.09,0,0,0,89.84,147a1.85,1.85,0,0,0,.88.13c.3,0,.63-.1,1-.15l2-.33v.17h-.13c-.44,0-.88,0-1.31-.08a5.8,5.8,0,0,1-1.24-.25l-.3-.12a1,1,0,0,1-.24-.22,4,4,0,0,1-.33-.51,10.22,10.22,0,0,1-.45-1l-.36-1c-.11-.32-.25-.61-.35-.9-.2-.57-.36-1.09-.49-1.53l0,0a5.5,5.5,0,0,0-1.26.29,1,1,0,0,0-.29.17C87,141.74,86.94,141.78,86.93,141.78Z" transform="translate(-15.93 -3.87)"/><path class="cls-2" d="M89.59,144.09a6.38,6.38,0,0,0,1,2.12c.54.53,3.07.54,3.07.54s-1.26.19-2.84.46-2.46-1.47-2.61-1.75c0,0-.22-.53.22-.46s.65.09.7-.17C89.29,144.14,89.59,144.09,89.59,144.09Z" transform="translate(-15.93 -3.87)"/><path class="cls-3" d="M86.71,134.88l.3-3.46a2.92,2.92,0,0,0-.1-1.35,2.8,2.8,0,0,0-1-1.12,37.88,37.88,0,0,0-4.23-2.87l.26,3.84Z" transform="translate(-15.93 -3.87)"/><path class="cls-5" d="M76,114.17,86.78,141.8s1.69-.27,1.94-.83L78.31,113.2Z" transform="translate(-15.93 -3.87)"/><path class="cls-3" d="M42.59,127.09c.32,0,24,3.58,24,3.58l1.53,3s3.56,3,4.63,3.91,5.89,3.46,7.13,3.56,1.14-1,1.14-1c2.53,1.62,3.38.07,3.38.07s.32.44,1.44-.24.53-2.35.53-2.35l.86-.76c.18-2.66-2.78-8.09-2.78-8.09s-4.51-6.24-5.9-6.87a5.17,5.17,0,0,0-3.31,0,25.39,25.39,0,0,1-3.5-.78c-.35-.25-15-4.73-15-4.73a17.78,17.78,0,0,0-9.67,5.25C43.83,125.42,42.59,127.09,42.59,127.09Z" transform="translate(-15.93 -3.87)"/><path class="cls-4" d="M86.46,137.71s-.12-.16-.33-.45L85.29,136l-1.23-1.87c-.47-.71-1-1.48-1.58-2.24a22.82,22.82,0,0,0-1.86-2,15.36,15.36,0,0,1-1.51-1.66,6.11,6.11,0,0,1-.79-1.29,3.16,3.16,0,0,1-.15-.39,1.31,1.31,0,0,1,0-.14,8.52,8.52,0,0,0,1.07,1.75,21.47,21.47,0,0,0,1.53,1.62,21.68,21.68,0,0,1,1.89,2c.6.77,1.11,1.55,1.57,2.26l1.2,1.89.8,1.28A3.74,3.74,0,0,1,86.46,137.71Z" transform="translate(-15.93 -3.87)"/><path class="cls-4" d="M75.33,129.85a2.84,2.84,0,0,1,.36.41l.92,1.15c.79,1,1.88,2.31,3.12,3.75s2.41,2.71,3.27,3.62l1,1.08a2.61,2.61,0,0,1,.36.41l-.4-.37c-.26-.24-.61-.59-1-1-.88-.89-2.06-2.15-3.31-3.59s-2.32-2.79-3.08-3.78c-.38-.5-.68-.9-.88-1.19A3.94,3.94,0,0,1,75.33,129.85Z" transform="translate(-15.93 -3.87)"/><path class="cls-4" d="M81.2,140.19a2.94,2.94,0,0,1-.38-.26c-.24-.18-.58-.44-1-.74-.87-.62-2.11-1.41-3.37-2.43a23.32,23.32,0,0,1-3-2.9c-.35-.4-.62-.74-.8-1a2.22,2.22,0,0,1-.25-.38,2.5,2.5,0,0,1,.31.34c.19.23.47.55.83.94a25.83,25.83,0,0,0,3,2.84c1.26,1,2.49,1.82,3.34,2.47.42.32.76.59,1,.78A2.12,2.12,0,0,1,81.2,140.19Z" transform="translate(-15.93 -3.87)"/><path class="cls-4" d="M82.58,126.72a1.53,1.53,0,0,1,.29.21c.17.15.41.37.7.66a12.26,12.26,0,0,1,3,5.52,6.43,6.43,0,0,1,.18.94,1.61,1.61,0,0,1,0,.36s-.11-.49-.33-1.27a13.23,13.23,0,0,0-1.19-2.91,13.64,13.64,0,0,0-1.82-2.55C82.94,127.08,82.56,126.75,82.58,126.72Z" transform="translate(-15.93 -3.87)"/><path class="cls-4" d="M72.68,126.7a3.53,3.53,0,0,0-1,.24,2.75,2.75,0,0,0-.91.66,2.4,2.4,0,0,0-.56,1.25,2.79,2.79,0,0,1-.49,1.37c-.32.34-.68.51-.89.75a.92.92,0,0,0-.27.68,1.08,1.08,0,0,0,.08.27.37.37,0,0,1-.15-.26,1,1,0,0,1,.25-.77c.22-.27.59-.46.86-.78a2.64,2.64,0,0,0,.44-1.3,2.51,2.51,0,0,1,.62-1.31,2.46,2.46,0,0,1,1-.67,2.06,2.06,0,0,1,.78-.16A.74.74,0,0,1,72.68,126.7Z" transform="translate(-15.93 -3.87)"/><path class="cls-11" d="M41.69,128.82" transform="translate(-15.93 -3.87)"/></g><g id="Layer_7" data-name="Layer 7"><rect class="cls-12" width="153.19" height="153.19"/></g></svg>