<svg id="Layer_1" data-name="Layer 1" xmlns="http://www.w3.org/2000/svg" xmlns:xlink="http://www.w3.org/1999/xlink" viewBox="0 0 1440 572.18"><defs><style>.cls-1{clip-path:url(#clip-path);}.cls-2{fill:#721122;}</style><clipPath id="clip-path" transform="translate(-321.57 -115.05)"/></defs><title>fondo</title><g class="cls-1"><path class="cls-2" d="M1440,138.63a1850.24,1850.24,0,0,1-258.44,18.14A1851.1,1851.1,0,0,1,923.1,138.63V115.05a2459.6,2459.6,0,0,0,256.63,13.61A2460,2460,0,0,0,1440,115.05Z" transform="translate(-321.57 -115.05)"/><path class="cls-2" d="M1395,161.37a1529,1529,0,0,1-213.5,15,1529.71,1529.71,0,0,1-213.49-15v-22.2a2034.37,2034.37,0,0,0,212,11.24,2031.8,2031.8,0,0,0,215-11.24Z" transform="translate(-321.57 -115.05)"/><rect class="cls-2" x="735.74" y="42.71" width="28.11" height="269.78"/><rect class="cls-2" x="956.09" y="42.71" width="28.11" height="269.78"/><rect class="cls-2" x="657.3" y="111.44" width="405.34" height="29.38"/><rect class="cls-2" x="710.52" y="312.48" width="77.96" height="12.87"/><rect class="cls-2" x="700.49" y="325.36" width="98.03" height="12.87"/><rect class="cls-2" x="931.17" y="312.48" width="77.96" height="12.87"/><rect class="cls-2" x="921.13" y="325.36" width="98.03" height="12.87"/><path class="cls-2" d="M321.57,327.23s226.17,6.33,310.28,37.34,195.11,88,195.11,88h515.43s115.35-1.48,174.63,46.39,113.74,90.31,141,101.19,103.57,15.1,103.57,15.1v72h-1440Z" transform="translate(-321.57 -115.05)"/></g></svg>